<svg width="250" height="27" viewBox="0 0 250 27" xmlns="http://www.w3.org/2000/svg"><path fill="#3B3B3B" d="M4.507,16.422c0.882,0,1.822,0.388,2.822,1.163c1.246,0.977,2.098,1.464,2.557,1.464c0.682,0,1.023-0.353,1.023-1.058c0-0.389-0.2-0.717-0.6-0.987c-0.212-0.142-1.4-0.594-3.563-1.358c-3.539-1.246-5.308-3.55-5.308-6.912c0-2.54,0.935-4.543,2.804-6.013c1.634-1.281,3.656-1.922,6.066-1.922c2.081,0,3.891,0.497,5.431,1.49c1.54,0.994,2.31,2.272,2.31,3.835c0,0.94-0.291,1.725-0.873,2.354s-1.337,0.943-2.266,0.943c-0.976,0-2.057-0.464-3.244-1.393c-0.741-0.576-1.299-0.864-1.675-0.864c-0.647,0-0.971,0.317-0.971,0.952c0,0.6,0.799,1.146,2.399,1.64c2.21,0.694,3.92,1.541,5.131,2.54c1.61,1.34,2.416,3.221,2.416,5.643c0,2.633-0.905,4.69-2.715,6.171c-1.681,1.376-3.868,2.063-6.56,2.063s-4.92-0.717-6.683-2.151c-1.411-1.14-2.116-2.475-2.116-4.003c0-1.022,0.347-1.875,1.041-2.557C2.626,16.78,3.484,16.434,4.507,16.422z M28.669,22.399c-0.376,0.894-0.764,1.558-1.164,1.992c-0.8,0.87-1.77,1.306-2.91,1.306c-1.399,0-2.486-0.564-3.262-1.693c-0.458-0.67-0.688-1.422-0.688-2.257c0-0.693,0.165-1.394,0.494-2.099L28.669,3.62c0.729-1.563,1.946-2.345,3.65-2.345c1.728,0,2.968,0.805,3.721,2.416l7.6,16.153c0.305,0.646,0.458,1.287,0.458,1.922c0,0.94-0.306,1.775-0.917,2.504c-0.8,0.952-1.822,1.429-3.068,1.429c-1.023,0-1.875-0.317-2.557-0.953c-0.505-0.47-1.011-1.252-1.516-2.345H28.669z M52.238,13.142l4.109-9.417c0.717-1.634,1.946-2.451,3.686-2.451c1.105,0,2.042,0.376,2.813,1.128S64,4.078,64,5.171c0,0.646-0.141,1.27-0.423,1.869l-7.459,15.994c-0.824,1.775-2.123,2.663-3.897,2.663c-1.728,0-2.975-0.823-3.738-2.469L41.076,7.305c-0.388-0.835-0.582-1.57-0.582-2.205c0-0.881,0.294-1.669,0.882-2.363c0.823-0.976,1.881-1.463,3.174-1.463c1.775,0,3.063,0.946,3.862,2.839L52.238,13.142z M74.161,18.079h3.607c1.49,0,2.598,0.306,3.325,0.917c0.856,0.729,1.285,1.669,1.285,2.821c0,1.176-0.429,2.128-1.287,2.856c-0.67,0.564-1.77,0.847-3.298,0.847h-6.189c-1.458,0-2.457-0.111-2.998-0.335c-1.058-0.435-1.757-1.146-2.098-2.134c-0.211-0.635-0.317-1.675-0.317-3.121V6.847c0-1.093,0.035-1.828,0.106-2.205c0.129-0.764,0.44-1.411,0.935-1.939c0.564-0.6,1.281-0.981,2.151-1.146c0.412-0.07,1.246-0.105,2.504-0.105h4.743c1.293,0,2.045,0.012,2.257,0.035c0.846,0.083,1.54,0.329,2.081,0.741c0.964,0.729,1.446,1.681,1.446,2.856c0,1.27-0.422,2.24-1.267,2.91c-0.751,0.6-1.777,0.899-3.08,0.899h-3.906v1.64h3.113c0.914,0,1.67,0.241,2.268,0.723c0.633,0.518,0.95,1.229,0.95,2.134c0,1.916-1.167,2.874-3.5,2.874h-2.831V18.079z M97.998,13.142l4.109-9.417c0.717-1.634,1.946-2.451,3.686-2.451c1.105,0,2.042,0.376,2.813,1.128s1.155,1.675,1.155,2.769c0,0.646-0.141,1.27-0.423,1.869l-7.459,15.994c-0.823,1.775-2.122,2.663-3.897,2.663c-1.728,0-2.975-0.823-3.738-2.469L86.835,7.305c-0.388-0.835-0.582-1.57-0.582-2.205c0-0.881,0.294-1.669,0.882-2.363c0.823-0.976,1.881-1.463,3.174-1.463c1.775,0,3.063,0.946,3.862,2.839L97.998,13.142z M119.885,6.194V21.13c0,1.293-0.335,2.357-1.005,3.191c-0.717,0.917-1.71,1.376-2.98,1.376c-1.164,0-2.146-0.43-2.945-1.288c-0.67-0.717-1.005-1.81-1.005-3.279V6.194c0-1.669,0.335-2.88,1.005-3.632c0.764-0.858,1.746-1.287,2.945-1.287c1.199,0,2.181,0.423,2.945,1.27C119.538,3.32,119.885,4.537,119.885,6.194z M127.494,1.451h4.85c3.537,0,6.447,1.011,8.729,3.033c2.668,2.363,4.002,5.355,4.002,8.976c0,1.775-0.389,3.48-1.164,5.114c-1.34,2.821-3.432,4.819-6.277,5.995c-1.539,0.635-3.604,0.952-6.189,0.952h-3.367c-1.611,0-2.734-0.212-3.369-0.635c-0.823-0.553-1.352-1.246-1.587-2.081c-0.141-0.505-0.211-1.41-0.211-2.716V6.864c0-1.14,0.018-1.84,0.053-2.099c0.094-0.741,0.364-1.369,0.811-1.887C124.584,1.927,125.824,1.451,127.494,1.451z M155.442,18.079h3.607c1.489,0,2.598,0.306,3.325,0.917c0.856,0.729,1.284,1.669,1.284,2.821c0,1.176-0.429,2.128-1.287,2.856c-0.67,0.564-1.77,0.847-3.297,0.847h-6.189c-1.458,0-2.457-0.111-2.998-0.335c-1.058-0.435-1.758-1.146-2.099-2.134c-0.211-0.635-0.317-1.675-0.317-3.121V6.847c0-1.093,0.036-1.828,0.106-2.205c0.129-0.764,0.44-1.411,0.935-1.939c0.564-0.6,1.281-0.981,2.151-1.146c0.411-0.07,1.246-0.105,2.504-0.105h4.743c1.293,0,2.046,0.012,2.257,0.035c0.847,0.083,1.54,0.329,2.081,0.741c0.964,0.729,1.446,1.681,1.446,2.856c0,1.27-0.423,2.24-1.268,2.91c-0.75,0.6-1.776,0.899-3.079,0.899h-3.906v1.64h3.112c0.914,0,1.671,0.241,2.269,0.723c0.633,0.518,0.949,1.229,0.949,2.134c0,1.916-1.166,2.874-3.499,2.874h-2.831V18.079z M177.715,0.798c2.445-0.023,4.69,0.614,6.736,1.913c2.045,1.299,3.597,3.013,4.655,5.14c0.881,1.763,1.322,3.632,1.322,5.607c0,2.222-0.547,4.303-1.64,6.242c-1.094,1.939-2.587,3.486-4.479,4.638c-2.01,1.223-4.231,1.834-6.665,1.834c-2.363,0-4.57-0.638-6.622-1.913s-3.601-2.978-4.646-5.105c-0.882-1.786-1.323-3.749-1.323-5.889c0-1.763,0.382-3.468,1.146-5.114c1.046-2.269,2.609-4.062,4.69-5.378C172.925,1.48,175.199,0.822,177.715,0.798z M195.692,18.626c1.048-0.012,1.943,0.353,2.686,1.093c0.742,0.741,1.114,1.635,1.114,2.681c0,0.964-0.336,1.811-1.008,2.539c-0.766,0.823-1.679,1.234-2.739,1.234c-1.084,0-1.994-0.376-2.73-1.129c-0.737-0.752-1.105-1.669-1.105-2.75c0-1.012,0.377-1.872,1.132-2.584C193.795,18.999,194.679,18.638,195.692,18.626z M216.035,11.907l4.003-8.517c0.658-1.411,1.828-2.116,3.509-2.116c2.21,0,3.532,1.234,3.968,3.703l2.769,15.518c0.082,0.458,0.123,0.911,0.123,1.357c0,1.082-0.379,1.993-1.137,2.733c-0.759,0.74-1.685,1.111-2.777,1.111c-0.977,0-1.828-0.271-2.558-0.812c-0.729-0.541-1.188-1.281-1.375-2.222l-0.882-4.515l-1.569,4.268c-0.8,2.187-2.157,3.28-4.073,3.28c-1.893,0-3.238-1.082-4.038-3.245l-1.587-4.303l-0.652,3.845c-0.188,1.116-0.605,1.98-1.252,2.592c-0.776,0.74-1.682,1.111-2.716,1.111c-1.423,0-2.521-0.559-3.298-1.676c-0.481-0.693-0.723-1.575-0.723-2.645c0-0.317,0.029-0.641,0.088-0.97l2.716-15.43c0.188-1.082,0.611-1.952,1.27-2.61c0.706-0.729,1.587-1.093,2.646-1.093c0.857,0,1.648,0.244,2.371,0.731c0.724,0.488,1.261,1.126,1.614,1.914L216.035,11.907z M240.774,18.079h3.607c1.489,0,2.598,0.306,3.325,0.917c0.856,0.729,1.284,1.669,1.284,2.821c0,1.176-0.429,2.128-1.287,2.856c-0.67,0.564-1.77,0.847-3.297,0.847h-6.189c-1.458,0-2.457-0.111-2.998-0.335c-1.058-0.435-1.758-1.146-2.099-2.134c-0.211-0.635-0.317-1.675-0.317-3.121V6.847c0-1.093,0.036-1.828,0.106-2.205c0.129-0.764,0.44-1.411,0.935-1.939c0.564-0.6,1.281-0.981,2.151-1.146c0.411-0.07,1.246-0.105,2.504-0.105h4.743c1.293,0,2.046,0.012,2.257,0.035c0.847,0.083,1.54,0.329,2.081,0.741c0.964,0.729,1.446,1.681,1.446,2.856c0,1.27-0.423,2.24-1.268,2.91c-0.75,0.6-1.776,0.899-3.079,0.899h-3.906v1.64h3.112c0.914,0,1.671,0.241,2.269,0.723c0.633,0.518,0.949,1.229,0.949,2.134c0,1.916-1.166,2.874-3.499,2.874h-2.831V18.079z"/></svg>