<svg width="18" height="18" viewBox="0 0 18 18" fill="none" xmlns="http://www.w3.org/2000/svg"><path fill="#000000" d="M0 11.77c0 1.15.93 2.08 2.08 2.08h2.07v-1.39H2.08a.7.7 0 0 1-.7-.69v-9.7c0-.38.32-.68.7-.68h9.69c.38 0 .7.3.7.69v2.07H6.22c-1.15 0-2.08.93-2.08 2.08v9.7c0 1.14.93 2.07 2.08 2.07h9.7c1.14 0 2.07-.93 2.07-2.08V6.23c0-1.15-.93-2.08-2.08-2.08h-2.07V2.08C13.85.93 12.92 0 11.77 0h-9.7C.94 0 0 .93 0 2.08v9.69zm5.54-5.54c0-.38.3-.7.7-.7h9.68c.39 0 .7.32.7.7v9.7a.7.7 0 0 1-.7.68H6.23a.7.7 0 0 1-.7-.69V6.23z"/></svg>