<svg xmlns="http://www.w3.org/2000/svg" width="110" height="88" viewBox="0 0 110 88"><path fill="#3B3B3B" d="M28.291,16.733c0.907,0,1.875,0.398,2.903,1.196c1.281,1.004,2.158,1.506,2.63,1.506c0.701,0,1.052-0.362,1.052-1.088c0-0.398-0.206-0.737-0.616-1.017c-0.218-0.146-1.44-0.61-3.664-1.396c-3.639-1.282-5.459-3.652-5.459-7.11c0-2.612,0.962-4.673,2.884-6.185c1.681-1.318,3.761-1.979,6.24-1.979c2.14,0,4.001,0.512,5.586,1.532c1.584,1.023,2.376,2.337,2.376,3.945c0,0.969-0.299,1.775-0.897,2.422c-0.599,0.646-1.376,0.972-2.332,0.972c-1.004,0-2.116-0.479-3.337-1.435c-0.762-0.592-1.336-0.889-1.723-0.889c-0.666,0-0.998,0.327-0.998,0.98c0,0.616,0.823,1.179,2.467,1.687c2.273,0.714,4.033,1.584,5.278,2.612c1.656,1.379,2.485,3.314,2.485,5.804c0,2.709-0.932,4.825-2.793,6.349c-1.73,1.414-3.979,2.122-6.748,2.122s-5.061-0.737-6.874-2.213c-1.451-1.172-2.177-2.545-2.177-4.118c0-1.053,0.356-1.929,1.07-2.629C26.356,17.102,27.239,16.745,28.291,16.733z M53.145,22.882c-0.388,0.918-0.787,1.602-1.197,2.049c-0.822,0.896-1.82,1.342-2.993,1.342c-1.44,0-2.557-0.58-3.355-1.74c-0.472-0.689-0.708-1.463-0.708-2.322c0-0.713,0.169-1.433,0.508-2.158l7.745-16.488c0.75-1.608,2-2.411,3.752-2.411c1.779,0,3.055,0.828,3.83,2.485l7.818,16.614c0.314,0.666,0.469,1.324,0.469,1.979c0,0.967-0.314,1.824-0.941,2.574c-0.822,0.98-1.875,1.469-3.156,1.469c-1.053,0-1.93-0.326-2.629-0.979c-0.521-0.483-1.041-1.287-1.561-2.411L53.145,22.882L53.145,22.882z M77.389,13.358l4.225-9.686c0.738-1.68,2.002-2.521,3.791-2.521c1.137,0,2.1,0.388,2.893,1.16c0.793,0.773,1.188,1.724,1.188,2.848c0,0.666-0.145,1.307-0.434,1.923l-7.672,16.452c-0.848,1.825-2.184,2.738-4.01,2.738c-1.777,0-3.059-0.846-3.846-2.539L65.906,7.356c-0.398-0.859-0.6-1.615-0.6-2.269c0-0.906,0.303-1.717,0.908-2.431c0.846-1.003,1.934-1.505,3.266-1.505c1.824,0,3.148,0.974,3.969,2.92L77.389,13.358z M99.938,18.437h3.709c1.533,0,2.672,0.314,3.422,0.942c0.881,0.751,1.322,1.718,1.322,2.903c0,1.21-0.441,2.189-1.324,2.938c-0.689,0.58-1.822,0.87-3.393,0.87h-6.367c-1.5,0-2.527-0.114-3.082-0.344c-1.088-0.447-1.809-1.181-2.158-2.196c-0.219-0.652-0.328-1.723-0.328-3.21V6.883c0-1.124,0.037-1.88,0.109-2.268c0.133-0.785,0.453-1.451,0.961-1.995c0.58-0.616,1.318-1.009,2.215-1.179c0.42-0.072,1.279-0.108,2.574-0.108h4.879c1.33,0,2.104,0.013,2.32,0.036c0.871,0.084,1.586,0.339,2.143,0.763c0.99,0.75,1.486,1.729,1.486,2.938c0,1.306-0.434,2.303-1.303,2.991c-0.771,0.617-1.83,0.926-3.168,0.926h-4.018v1.687h3.201c0.941,0,1.717,0.248,2.334,0.744c0.65,0.532,0.977,1.264,0.977,2.195c0,1.972-1.201,2.956-3.602,2.956h-2.91V18.437L99.938,18.437z M13.22,43.961l4.227-9.685c0.737-1.681,2.001-2.521,3.79-2.521c1.137,0,2.102,0.388,2.894,1.161c0.792,0.774,1.188,1.723,1.188,2.847c0,0.666-0.146,1.306-0.436,1.922L17.21,54.137c-0.847,1.824-2.183,2.738-4.008,2.738c-1.778,0-3.06-0.846-3.845-2.541L1.739,37.957c-0.398-0.858-0.6-1.614-0.6-2.267c0-0.907,0.304-1.717,0.907-2.431c0.846-1.004,1.934-1.506,3.265-1.506c1.825,0,3.15,0.974,3.973,2.921L13.22,43.961z M35.733,36.813v15.362c0,1.33-0.344,2.424-1.033,3.283c-0.738,0.943-1.76,1.414-3.066,1.414c-1.197,0-2.207-0.441-3.029-1.324c-0.689-0.736-1.034-1.861-1.034-3.371V36.813c0-1.717,0.346-2.962,1.034-3.736c0.785-0.883,1.795-1.325,3.029-1.325s2.243,0.436,3.03,1.307C35.375,33.858,35.733,35.109,35.733,36.813z M43.561,31.936h4.988c3.639,0,6.632,1.04,8.979,3.119c2.744,2.431,4.117,5.507,4.117,9.231c0,1.826-0.398,3.578-1.197,5.259c-1.379,2.902-3.531,4.959-6.457,6.168c-1.584,0.652-3.706,0.98-6.366,0.98h-3.465c-1.656,0-2.811-0.219-3.463-0.652c-0.848-0.568-1.392-1.283-1.632-2.141c-0.146-0.521-0.218-1.451-0.218-2.793V37.503c0-1.173,0.018-1.893,0.055-2.159c0.097-0.762,0.375-1.408,0.834-1.94C40.567,32.424,41.843,31.936,43.561,31.936z M72.309,49.039h3.709c1.533,0,2.672,0.314,3.422,0.941c0.879,0.752,1.32,1.719,1.32,2.904c0,1.207-0.441,2.188-1.322,2.938c-0.691,0.582-1.82,0.871-3.393,0.871h-6.369c-1.498,0-2.527-0.115-3.08-0.346c-1.088-0.445-1.809-1.178-2.158-2.195c-0.219-0.652-0.328-1.723-0.328-3.209V37.485c0-1.125,0.037-1.88,0.109-2.267c0.135-0.786,0.453-1.45,0.961-1.995c0.58-0.617,1.318-1.009,2.213-1.179c0.422-0.072,1.279-0.108,2.574-0.108h4.879c1.332,0,2.104,0.012,2.322,0.036c0.869,0.084,1.584,0.338,2.141,0.762c0.99,0.75,1.486,1.73,1.486,2.939c0,1.306-0.434,2.303-1.303,2.993c-0.771,0.616-1.828,0.925-3.168,0.925h-4.018v1.687h3.201c0.941,0,1.719,0.248,2.334,0.744c0.65,0.533,0.977,1.265,0.977,2.195c0,1.969-1.199,2.956-3.6,2.956h-2.912v1.867H72.309z M95.217,31.264c2.516-0.024,4.826,0.631,6.93,1.968s3.701,3.099,4.789,5.288c0.906,1.814,1.359,3.737,1.359,5.766c0,2.287-0.563,4.427-1.688,6.421c-1.123,1.996-2.66,3.586-4.605,4.771c-2.068,1.256-4.354,1.887-6.857,1.887c-2.43,0-4.701-0.658-6.811-1.969c-2.111-1.313-3.703-3.063-4.779-5.25c-0.906-1.84-1.359-3.859-1.359-6.058c0-1.814,0.393-3.567,1.178-5.26c1.076-2.333,2.686-4.177,4.824-5.532C90.289,31.966,92.629,31.288,95.217,31.264z M53.427,79.576c1.079-0.012,1.999,0.361,2.761,1.125c0.766,0.76,1.146,1.68,1.146,2.756c0,0.99-0.346,1.861-1.035,2.613c-0.789,0.846-1.726,1.27-2.817,1.27c-1.115,0-2.051-0.389-2.809-1.162c-0.758-0.773-1.137-1.717-1.137-2.828c0-1.039,0.388-1.926,1.164-2.656C51.475,79.959,52.385,79.588,53.427,79.576z M74.354,72.666l4.117-8.762c0.678-1.451,1.881-2.178,3.611-2.178c2.271,0,3.633,1.271,4.08,3.811l2.848,15.961c0.084,0.471,0.127,0.936,0.127,1.396c0,1.113-0.391,2.049-1.172,2.813c-0.779,0.76-1.73,1.141-2.855,1.141c-1.004,0-1.881-0.277-2.631-0.832c-0.748-0.559-1.221-1.318-1.414-2.287l-0.906-4.643l-1.615,4.389c-0.822,2.25-2.219,3.373-4.189,3.373c-1.947,0-3.33-1.111-4.152-3.336l-1.635-4.426l-0.67,3.955c-0.195,1.148-0.623,2.037-1.289,2.666c-0.797,0.76-1.729,1.141-2.791,1.141c-1.463,0-2.596-0.574-3.393-1.721c-0.496-0.715-0.744-1.623-0.744-2.723c0-0.324,0.029-0.658,0.092-0.998l2.793-15.869c0.191-1.113,0.627-2.008,1.307-2.684c0.727-0.752,1.631-1.127,2.721-1.127c0.881,0,1.695,0.252,2.439,0.754s1.297,1.156,1.66,1.969L74.354,72.666z M99.799,79.012h3.711c1.531,0,2.672,0.316,3.42,0.943c0.883,0.752,1.32,1.719,1.32,2.902c0,1.211-0.439,2.189-1.322,2.939c-0.689,0.58-1.82,0.871-3.393,0.871H97.17c-1.5,0-2.527-0.115-3.084-0.346c-1.088-0.447-1.809-1.178-2.16-2.195c-0.217-0.652-0.324-1.723-0.324-3.209V67.459c0-1.123,0.035-1.881,0.107-2.268c0.133-0.785,0.455-1.449,0.963-1.996c0.58-0.615,1.318-1.01,2.211-1.178c0.424-0.072,1.283-0.107,2.578-0.107h4.879c1.328,0,2.104,0.012,2.32,0.035c0.871,0.084,1.584,0.34,2.141,0.762c0.992,0.75,1.488,1.729,1.488,2.938c0,1.307-0.438,2.305-1.305,2.992c-0.773,0.619-1.828,0.926-3.166,0.926h-4.02v1.688h3.203c0.939,0,1.717,0.248,2.33,0.744c0.65,0.531,0.98,1.264,0.98,2.195c0,1.971-1.201,2.957-3.602,2.957h-2.912V79.012L99.799,79.012z"/></svg>