<svg width="100" height="45" viewBox="0 0 100 45" xmlns="http://www.w3.org/2000/svg"><path fill="#A3A3A3" d="M31.549,19.028h-1.142V9.007h1.23v3.575c0.52-0.652,1.183-0.978,1.989-0.978c0.447,0,0.869,0.09,1.269,0.27c0.398,0.18,0.727,0.433,0.984,0.759c0.257,0.326,0.459,0.719,0.604,1.179c0.146,0.46,0.219,0.953,0.219,1.477c0,1.244-0.308,2.206-0.923,2.885c-0.615,0.679-1.354,1.019-2.215,1.019c-0.856,0-1.528-0.357-2.017-1.073v0.908H31.549z M31.536,15.344c0,0.87,0.119,1.499,0.355,1.887c0.388,0.634,0.912,0.95,1.572,0.95c0.538,0,1.003-0.233,1.395-0.701c0.393-0.467,0.588-1.162,0.588-2.088c0-0.948-0.188-1.647-0.563-2.099s-0.831-0.677-1.364-0.677c-0.537,0-1.002,0.233-1.395,0.701C31.731,13.784,31.536,14.459,31.536,15.344z M38.559,10.422V9.007h1.23v1.415H38.559z M38.559,19.028v-7.26h1.23v7.26H38.559z M46.98,16.69l1.271,0.157c-0.2,0.743-0.571,1.319-1.114,1.729c-0.542,0.41-1.234,0.615-2.078,0.615c-1.062,0-1.903-0.327-2.525-0.98c-0.622-0.654-0.934-1.572-0.934-2.752c0-1.221,0.314-2.169,0.943-2.844c0.629-0.675,1.445-1.012,2.447-1.012c0.971,0,1.764,0.331,2.379,0.991c0.615,0.66,0.923,1.59,0.923,2.789c0,0.072-0.002,0.182-0.007,0.328h-5.414c0.046,0.798,0.271,1.408,0.677,1.832c0.406,0.424,0.912,0.636,1.518,0.636c0.451,0,0.837-0.118,1.155-0.355C46.542,17.588,46.794,17.21,46.98,16.69z M42.94,14.701h4.054c-0.055-0.611-0.209-1.069-0.465-1.374c-0.391-0.474-0.899-0.711-1.524-0.711c-0.564,0-1.04,0.189-1.425,0.567C43.194,13.562,42.981,14.068,42.94,14.701z M50.146,19.028v-7.26h1.107V12.8c0.533-0.797,1.304-1.196,2.311-1.196c0.438,0,0.84,0.079,1.207,0.236c0.366,0.157,0.643,0.363,0.822,0.619c0.184,0.255,0.312,0.558,0.384,0.909c0.046,0.228,0.067,0.626,0.067,1.196v4.464h-1.229v-4.416c0-0.501-0.048-0.876-0.144-1.125s-0.266-0.446-0.508-0.594c-0.244-0.148-0.531-0.222-0.858-0.222c-0.522,0-0.978,0.167-1.356,0.499c-0.382,0.332-0.572,0.964-0.572,1.893v3.965H50.146z M35.125,35.829v-0.916c-0.46,0.72-1.137,1.08-2.03,1.08c-0.578,0-1.11-0.159-1.596-0.479s-0.861-0.765-1.128-1.336c-0.267-0.572-0.4-1.229-0.4-1.973c0-0.725,0.121-1.383,0.362-1.973c0.242-0.59,0.604-1.043,1.087-1.356s1.023-0.472,1.62-0.472c0.438,0,0.827,0.092,1.169,0.277c0.342,0.184,0.62,0.424,0.834,0.721v-3.596h1.224v10.021h-1.142V35.829z M31.234,32.206c0,0.931,0.196,1.625,0.588,2.085c0.393,0.46,0.854,0.689,1.388,0.689c0.538,0,0.995-0.219,1.371-0.66c0.376-0.438,0.563-1.109,0.563-2.012c0-0.994-0.191-1.724-0.574-2.188c-0.383-0.466-0.854-0.697-1.415-0.697c-0.547,0-1.004,0.224-1.37,0.67C31.418,30.54,31.234,31.244,31.234,32.206z M38.559,29.355l-0.314-1.873v-1.676h1.401v1.676l-0.328,1.873H38.559z M46.312,34.934c-0.455,0.389-0.895,0.662-1.315,0.82c-0.422,0.159-0.874,0.239-1.357,0.239c-0.797,0-1.41-0.195-1.839-0.584c-0.428-0.392-0.643-0.888-0.643-1.494c0-0.354,0.081-0.681,0.243-0.976c0.161-0.293,0.373-0.528,0.636-0.707c0.262-0.178,0.557-0.313,0.885-0.402c0.242-0.063,0.606-0.125,1.094-0.186c0.994-0.117,1.726-0.26,2.194-0.424c0.005-0.168,0.007-0.275,0.007-0.32c0-0.502-0.116-0.854-0.349-1.061c-0.314-0.277-0.781-0.417-1.401-0.417c-0.578,0-1.006,0.103-1.281,0.304c-0.276,0.203-0.479,0.563-0.612,1.078l-1.203-0.164c0.109-0.516,0.29-0.932,0.54-1.248c0.251-0.316,0.613-0.561,1.087-0.731c0.475-0.17,1.023-0.257,1.647-0.257c0.62,0,1.124,0.074,1.511,0.22c0.388,0.146,0.673,0.329,0.854,0.551c0.183,0.222,0.311,0.5,0.383,0.837c0.041,0.211,0.062,0.588,0.062,1.135v1.642c0,1.144,0.026,1.866,0.079,2.171c0.052,0.303,0.156,0.594,0.311,0.871H46.56C46.431,35.574,46.349,35.275,46.312,34.934z M46.208,32.186c-0.446,0.184-1.116,0.338-2.01,0.465c-0.506,0.074-0.863,0.156-1.073,0.246c-0.209,0.092-0.371,0.226-0.485,0.399c-0.113,0.177-0.171,0.371-0.171,0.585c0,0.328,0.124,0.602,0.373,0.82c0.248,0.219,0.611,0.328,1.09,0.328c0.475,0,0.896-0.104,1.265-0.313c0.369-0.207,0.641-0.49,0.813-0.851c0.133-0.278,0.198-0.688,0.198-1.229V32.186z M54.467,35.829v-1.065c-0.563,0.819-1.332,1.229-2.303,1.229c-0.429,0-0.828-0.082-1.199-0.246c-0.373-0.164-0.647-0.37-0.827-0.619c-0.181-0.248-0.307-0.552-0.38-0.912c-0.05-0.241-0.075-0.624-0.075-1.147V28.57h1.229v4.025c0,0.643,0.025,1.075,0.075,1.299c0.078,0.323,0.242,0.578,0.492,0.764c0.251,0.184,0.562,0.275,0.931,0.275c0.368,0,0.715-0.095,1.039-0.283c0.323-0.188,0.553-0.446,0.688-0.771c0.134-0.326,0.201-0.799,0.201-1.419v-3.89h1.229v7.26L54.467,35.829L54.467,35.829z M60.533,34.729l0.178,1.088c-0.348,0.072-0.656,0.108-0.931,0.108c-0.446,0-0.793-0.069-1.038-0.212c-0.246-0.143-0.421-0.326-0.521-0.559c-0.101-0.229-0.15-0.713-0.15-1.451v-4.178H57.17v-0.957h0.901v-1.797l1.224-0.738v2.535h1.238v0.957h-1.238v4.246c0,0.351,0.021,0.576,0.064,0.676c0.044,0.102,0.114,0.181,0.212,0.24c0.099,0.059,0.238,0.088,0.421,0.088C60.129,34.775,60.31,34.762,60.533,34.729z M62.071,35.829v-7.261h1.107v1.102c0.282-0.516,0.543-0.854,0.782-1.02c0.238-0.164,0.502-0.246,0.789-0.246c0.414,0,0.836,0.133,1.266,0.396l-0.424,1.143c-0.301-0.178-0.602-0.268-0.902-0.268c-0.27,0-0.511,0.081-0.725,0.242c-0.215,0.162-0.366,0.387-0.459,0.674c-0.137,0.438-0.205,0.916-0.205,1.436v3.802H62.071z M72.067,33.491l1.271,0.157c-0.2,0.742-0.571,1.318-1.114,1.729c-0.542,0.41-1.233,0.615-2.078,0.615c-1.062,0-1.903-0.327-2.524-0.98c-0.623-0.654-0.935-1.57-0.935-2.752c0-1.222,0.313-2.169,0.942-2.844s1.445-1.012,2.447-1.012c0.971,0,1.764,0.33,2.379,0.99c0.615,0.662,0.924,1.592,0.924,2.789c0,0.073-0.002,0.184-0.008,0.328h-5.414c0.047,0.799,0.271,1.408,0.678,1.832s0.912,0.637,1.519,0.637c0.451,0,0.837-0.119,1.154-0.355C71.627,34.389,71.881,34.012,72.067,33.491z M68.026,31.502h4.056c-0.056-0.609-0.211-1.068-0.465-1.374c-0.394-0.474-0.9-0.711-1.525-0.711c-0.564,0-1.039,0.188-1.426,0.567C68.28,30.361,68.067,30.868,68.026,31.502z M74.742,33.662l1.217-0.191c0.067,0.487,0.258,0.861,0.569,1.121c0.313,0.26,0.749,0.391,1.31,0.391c0.565,0,0.984-0.115,1.259-0.346c0.272-0.229,0.409-0.5,0.409-0.811c0-0.278-0.119-0.497-0.361-0.656c-0.168-0.109-0.588-0.248-1.258-0.417c-0.902-0.228-1.527-0.425-1.877-0.592c-0.348-0.166-0.612-0.396-0.793-0.688c-0.18-0.295-0.271-0.619-0.271-0.976c0-0.323,0.074-0.623,0.224-0.897c0.146-0.277,0.35-0.506,0.604-0.688c0.191-0.142,0.452-0.261,0.782-0.358c0.331-0.099,0.687-0.146,1.063-0.146c0.568,0,1.068,0.082,1.5,0.246c0.43,0.164,0.748,0.387,0.953,0.666c0.205,0.281,0.346,0.654,0.424,1.125l-1.203,0.164c-0.055-0.375-0.213-0.666-0.475-0.875c-0.263-0.211-0.633-0.314-1.111-0.314c-0.563,0-0.969,0.094-1.209,0.279c-0.242,0.187-0.363,0.406-0.363,0.656c0,0.16,0.052,0.304,0.15,0.432c0.1,0.132,0.258,0.24,0.473,0.328c0.123,0.046,0.484,0.15,1.086,0.314c0.871,0.231,1.479,0.422,1.822,0.569s0.613,0.364,0.811,0.646c0.197,0.282,0.294,0.635,0.294,1.053c0,0.41-0.119,0.798-0.358,1.158c-0.238,0.363-0.584,0.644-1.035,0.842c-0.451,0.197-0.961,0.298-1.531,0.298c-0.943,0-1.662-0.196-2.156-0.589C75.193,35.014,74.879,34.434,74.742,33.662z M83.239,33.341l-0.376-5.312v-2.223h1.524v2.223l-0.354,5.312H83.239z M82.918,35.829v-1.401h1.416v1.401H82.918z M19.12,27.751v-3.533h-3.507v-1.477h3.507v-3.507h1.494v3.507h3.507v1.477h-3.507v3.533H19.12z"/></svg>