<svg width="100" height="45" viewBox="0 0 100 45" xmlns="http://www.w3.org/2000/svg"><path fill="#A3A3A3" d="M38.288,18.176h-7.163v8.298c2.314,0,4.989-0.224,8.024-0.668v1.37c-2.543,0.398-5.692,0.662-9.448,0.791V16.771h8.587V18.176z M42.7,30.648V23.16h-5.027v-1.397H42.7v-7.507h1.371v16.393H42.7L42.7,30.648z M61.416,15.619v7.295H53.84v-7.295H61.416z M54.323,24.224h1.389v4.686c0.804,0,2.253-0.127,4.351-0.379l0.027,1.44c-1.605,0.229-3.527,0.379-5.767,0.449V24.224z M55.211,17.062v4.412h4.834v-4.412H55.211z M67.322,26.904h-6.916v-1.134h6.916V26.904z M63.869,30.762c-0.943,0-1.688-0.154-2.232-0.461c-0.545-0.309-0.818-0.73-0.818-1.27c0-0.527,0.274-0.945,0.822-1.254c0.549-0.307,1.291-0.461,2.229-0.461s1.678,0.154,2.223,0.461c0.546,0.309,0.818,0.727,0.818,1.254c0,0.533-0.274,0.955-0.822,1.266S64.801,30.762,63.869,30.762z M65.723,25.271h-3.674v-1.135h3.674V25.271z M63.869,28.513c-0.68,0-1.124,0.041-1.332,0.123c-0.208,0.081-0.313,0.215-0.313,0.396s0.098,0.313,0.291,0.395c0.192,0.082,0.645,0.123,1.354,0.123c0.674,0,1.113-0.041,1.322-0.123c0.207-0.082,0.313-0.213,0.313-0.395s-0.104-0.314-0.313-0.396C64.982,28.554,64.543,28.513,63.869,28.513z M68.492,19.724h-2.865v4.069h-1.363v-9.555h1.363v4.104h2.865V19.724z M86.67,23.828H71.518v-1.363H86.67V23.828z M85.035,18.281c0,0.855-0.567,1.602-1.701,2.237c-1.134,0.635-2.547,0.954-4.24,0.954c-1.752,0-3.178-0.305-4.275-0.91c-1.098-0.606-1.647-1.367-1.647-2.281c0-0.85,0.576-1.589,1.729-2.219c1.154-0.63,2.554-0.945,4.193-0.945c1.646,0,3.049,0.314,4.205,0.941C84.456,16.686,85.035,17.426,85.035,18.281z M84.885,30.217H73.477v-5.483h1.406v4.061h10.002V30.217z M83.453,18.281c0-0.498-0.415-0.918-1.244-1.261s-1.861-0.516-3.098-0.516c-1.237,0-2.271,0.173-3.1,0.516c-0.828,0.343-1.242,0.763-1.242,1.261c0,0.51,0.412,0.938,1.237,1.283c0.826,0.345,1.861,0.52,3.104,0.52c1.242,0,2.274-0.174,3.102-0.52C83.04,19.218,83.453,18.791,83.453,18.281z M90.573,26.191l-0.483-6.828v-2.857h1.96v2.857l-0.457,6.828H90.573z M90.16,29.391V27.59h1.818v1.801H90.16z M12.626,28.179v-4.712H7.95v-1.969h4.676v-4.676h1.992v4.676h4.676v1.969h-4.676v4.712H12.626z"/></svg>