<svg width="100" height="45" viewBox="0 0 100 45" xmlns="http://www.w3.org/2000/svg"><path fill="#A3A3A3" d="M35.994,19.028v-7.26h1.101v1.019c0.229-0.355,0.531-0.642,0.909-0.858c0.379-0.216,0.81-0.325,1.292-0.325c0.538,0,0.979,0.112,1.323,0.335c0.344,0.223,0.587,0.536,0.728,0.937c0.574-0.848,1.322-1.271,2.242-1.271c0.721,0,1.274,0.199,1.661,0.598c0.388,0.399,0.581,1.012,0.581,1.842v4.983h-1.224v-4.573c0-0.492-0.04-0.847-0.119-1.063c-0.08-0.216-0.225-0.391-0.435-0.523c-0.209-0.132-0.455-0.198-0.738-0.198c-0.51,0-0.934,0.17-1.271,0.509c-0.337,0.339-0.506,0.883-0.506,1.63v4.218h-1.23v-4.716c0-0.547-0.1-0.957-0.301-1.23c-0.2-0.273-0.528-0.41-0.984-0.41c-0.346,0-0.666,0.091-0.96,0.273c-0.294,0.182-0.507,0.449-0.64,0.8c-0.132,0.351-0.198,0.857-0.198,1.518v3.767h-1.231V19.028z M52.765,19.028v-1.066c-0.565,0.82-1.333,1.23-2.304,1.23c-0.429,0-0.828-0.082-1.2-0.246c-0.371-0.164-0.646-0.37-0.827-0.619c-0.18-0.248-0.307-0.552-0.379-0.912c-0.051-0.241-0.075-0.625-0.075-1.148v-4.498h1.23v4.026c0,0.643,0.024,1.075,0.075,1.299c0.077,0.323,0.241,0.577,0.492,0.763c0.25,0.184,0.561,0.276,0.931,0.276c0.369,0,0.715-0.095,1.039-0.284c0.322-0.188,0.553-0.446,0.687-0.771c0.135-0.326,0.202-0.799,0.202-1.419v-3.89h1.23v7.26L52.765,19.028L52.765,19.028z M56.148,10.422V9.007h1.23v1.415H56.148z M56.148,19.028v-7.26h1.23v7.26H56.148z M62.289,17.928l0.178,1.087c-0.348,0.073-0.656,0.109-0.93,0.109c-0.447,0-0.793-0.07-1.039-0.212s-0.42-0.327-0.521-0.558c-0.101-0.229-0.149-0.714-0.149-1.452v-4.176h-0.902v-0.957h0.902V9.971l1.223-0.738v2.536h1.238v0.957h-1.238v4.245c0,0.351,0.021,0.576,0.064,0.677c0.045,0.101,0.114,0.18,0.213,0.239c0.098,0.06,0.238,0.089,0.42,0.089C61.885,17.976,62.064,17.96,62.289,17.928z M63.383,15.398c0-1.344,0.375-2.34,1.121-2.987c0.625-0.538,1.387-0.807,2.283-0.807c0.998,0,1.814,0.327,2.447,0.981c0.635,0.654,0.951,1.558,0.951,2.71c0,0.934-0.141,1.669-0.421,2.205c-0.28,0.535-0.688,0.951-1.224,1.247c-0.537,0.296-1.121,0.444-1.754,0.444c-1.017,0-1.838-0.326-2.465-0.978C63.696,17.561,63.383,16.624,63.383,15.398z M64.648,15.398c0,0.93,0.202,1.626,0.607,2.089c0.406,0.462,0.916,0.693,1.531,0.693c0.61,0,1.118-0.232,1.524-0.697c0.405-0.465,0.606-1.174,0.606-2.126c0-0.898-0.203-1.578-0.61-2.041c-0.408-0.463-0.915-0.694-1.521-0.694c-0.615,0-1.125,0.23-1.531,0.69C64.852,13.774,64.648,14.469,64.648,15.398z M71.485,16.861l1.218-0.191c0.067,0.487,0.258,0.861,0.57,1.121c0.313,0.26,0.748,0.39,1.309,0.39c0.564,0,0.984-0.115,1.258-0.346c0.273-0.229,0.41-0.5,0.41-0.81c0-0.278-0.121-0.497-0.361-0.656c-0.17-0.109-0.588-0.249-1.258-0.417c-0.902-0.229-1.528-0.425-1.877-0.591c-0.35-0.167-0.612-0.396-0.793-0.691c-0.181-0.294-0.271-0.618-0.271-0.974c0-0.324,0.074-0.623,0.222-0.899c0.148-0.276,0.351-0.505,0.605-0.687c0.191-0.141,0.451-0.261,0.783-0.359c0.33-0.098,0.684-0.147,1.063-0.147c0.57,0,1.07,0.082,1.5,0.246c0.432,0.164,0.749,0.386,0.954,0.667c0.205,0.281,0.347,0.655,0.425,1.125l-1.203,0.164c-0.056-0.374-0.213-0.666-0.477-0.875c-0.262-0.209-0.632-0.314-1.109-0.314c-0.565,0-0.969,0.093-1.211,0.28s-0.361,0.405-0.361,0.656c0,0.16,0.05,0.303,0.149,0.431c0.101,0.132,0.257,0.242,0.472,0.328c0.123,0.045,0.485,0.15,1.088,0.314c0.869,0.232,1.478,0.423,1.82,0.571c0.346,0.147,0.615,0.363,0.812,0.646c0.194,0.283,0.294,0.633,0.294,1.053c0,0.41-0.12,0.797-0.357,1.158c-0.24,0.363-0.586,0.643-1.037,0.842c-0.451,0.197-0.961,0.297-1.531,0.297c-0.942,0-1.661-0.196-2.156-0.588S71.623,17.632,71.485,16.861z M35.536,32.199c0-1.346,0.374-2.34,1.121-2.987c0.625-0.538,1.386-0.808,2.283-0.808c0.998,0,1.814,0.328,2.447,0.98c0.634,0.654,0.95,1.559,0.95,2.711c0,0.936-0.14,1.67-0.42,2.205c-0.28,0.535-0.688,0.951-1.224,1.247c-0.536,0.296-1.12,0.444-1.754,0.444c-1.016,0-1.838-0.326-2.464-0.979C35.85,34.363,35.536,33.425,35.536,32.199z M36.8,32.199c0,0.93,0.203,1.626,0.608,2.089c0.406,0.462,0.916,0.692,1.531,0.692c0.611,0,1.119-0.231,1.524-0.696c0.406-0.466,0.608-1.175,0.608-2.126c0-0.896-0.204-1.578-0.611-2.04c-0.408-0.464-0.915-0.694-1.521-0.694c-0.615,0-1.125,0.23-1.531,0.689C37.003,30.574,36.8,31.27,36.8,32.199z M48.889,35.829v-1.065c-0.565,0.819-1.333,1.229-2.304,1.229c-0.429,0-0.828-0.082-1.2-0.246c-0.371-0.164-0.646-0.37-0.827-0.619c-0.18-0.248-0.307-0.552-0.379-0.912c-0.051-0.241-0.075-0.624-0.075-1.147V28.57h1.23v4.025c0,0.643,0.024,1.075,0.075,1.299c0.077,0.323,0.241,0.578,0.492,0.764c0.25,0.184,0.561,0.275,0.93,0.275s0.715-0.095,1.039-0.283c0.323-0.188,0.553-0.446,0.687-0.771c0.135-0.326,0.202-0.799,0.202-1.419v-3.89h1.23v7.26L48.889,35.829L48.889,35.829z M54.953,34.729l0.178,1.088c-0.346,0.072-0.656,0.108-0.93,0.108c-0.447,0-0.793-0.069-1.039-0.212s-0.42-0.326-0.521-0.559c-0.101-0.229-0.149-0.713-0.149-1.451v-4.178H51.59v-0.957h0.902v-1.797l1.223-0.738v2.535h1.238v0.957h-1.238v4.246c0,0.351,0.021,0.576,0.065,0.676c0.044,0.102,0.113,0.181,0.212,0.24c0.098,0.06,0.238,0.088,0.42,0.088C54.549,34.775,54.729,34.762,54.953,34.729z M56.492,35.829v-7.261h1.106v1.102c0.282-0.516,0.544-0.854,0.782-1.02c0.24-0.164,0.502-0.246,0.789-0.246c0.416,0,0.838,0.133,1.266,0.396l-0.424,1.143c-0.301-0.178-0.602-0.268-0.902-0.268c-0.27,0-0.51,0.081-0.725,0.242c-0.215,0.162-0.366,0.387-0.459,0.674c-0.137,0.438-0.204,0.916-0.204,1.436v3.802H56.492z M61.06,32.199c0-1.346,0.374-2.34,1.121-2.987c0.625-0.538,1.386-0.808,2.282-0.808c0.998,0,1.814,0.328,2.447,0.98c0.635,0.654,0.951,1.559,0.951,2.711c0,0.936-0.141,1.67-0.421,2.205s-0.688,0.951-1.224,1.247c-0.536,0.296-1.12,0.444-1.754,0.444c-1.017,0-1.838-0.326-2.465-0.979C61.373,34.361,61.06,33.425,61.06,32.199z M62.324,32.199c0,0.93,0.202,1.626,0.607,2.089c0.406,0.462,0.916,0.692,1.531,0.692c0.611,0,1.119-0.231,1.524-0.696c0.405-0.466,0.606-1.175,0.606-2.126c0-0.896-0.202-1.578-0.61-2.04c-0.407-0.464-0.915-0.694-1.521-0.694c-0.615,0-1.125,0.23-1.531,0.689C62.526,30.574,62.324,31.27,62.324,32.199z M69.162,33.662l1.217-0.191c0.067,0.487,0.259,0.861,0.57,1.121c0.313,0.26,0.748,0.391,1.309,0.391c0.564,0,0.984-0.115,1.259-0.346c0.272-0.229,0.409-0.5,0.409-0.811c0-0.278-0.12-0.497-0.361-0.656c-0.169-0.109-0.588-0.248-1.258-0.417c-0.902-0.228-1.528-0.425-1.876-0.592c-0.351-0.166-0.613-0.396-0.793-0.688c-0.181-0.295-0.271-0.619-0.271-0.976c0-0.323,0.073-0.623,0.221-0.897c0.148-0.277,0.351-0.506,0.605-0.688c0.191-0.142,0.452-0.261,0.783-0.358c0.33-0.099,0.684-0.146,1.063-0.146c0.57,0,1.07,0.082,1.5,0.246c0.433,0.164,0.75,0.387,0.955,0.666c0.205,0.281,0.346,0.654,0.424,1.125l-1.203,0.164c-0.055-0.375-0.213-0.666-0.477-0.875c-0.262-0.211-0.632-0.314-1.109-0.314c-0.565,0-0.969,0.094-1.211,0.279c-0.242,0.187-0.361,0.406-0.361,0.656c0,0.16,0.05,0.304,0.15,0.432c0.101,0.132,0.256,0.24,0.472,0.328c0.122,0.046,0.485,0.15,1.087,0.314c0.869,0.231,1.479,0.422,1.82,0.569c0.346,0.147,0.615,0.364,0.812,0.646c0.196,0.282,0.294,0.635,0.294,1.053c0,0.41-0.12,0.798-0.357,1.158c-0.24,0.363-0.586,0.644-1.037,0.842c-0.45,0.197-0.961,0.298-1.53,0.298c-0.942,0-1.662-0.196-2.157-0.589C69.613,35.014,69.299,34.434,69.162,33.662z M77.66,33.341l-0.377-5.312v-2.223h1.525v2.223l-0.355,5.312H77.66z M77.338,35.829v-1.401h1.416v1.401H77.338z M24.699,27.751v-3.533h-3.507v-1.477h3.507v-3.507h1.494v3.507H29.7v1.477h-3.507v3.533H24.699z"/></svg>