<svg width="100" height="45" viewBox="0 0 100 45" xmlns="http://www.w3.org/2000/svg"><path fill="#A3A3A3" d="M42.858,19.028v-7.26h1.101v1.019c0.228-0.355,0.53-0.642,0.909-0.858c0.378-0.216,0.809-0.325,1.292-0.325c0.537,0,0.979,0.112,1.322,0.335c0.345,0.223,0.587,0.536,0.729,0.937c0.574-0.848,1.321-1.271,2.242-1.271c0.72,0,1.273,0.199,1.662,0.598c0.387,0.399,0.58,1.013,0.58,1.842v4.983h-1.223v-4.573c0-0.492-0.04-0.847-0.12-1.063c-0.08-0.216-0.226-0.391-0.435-0.523c-0.209-0.132-0.456-0.198-0.737-0.198c-0.511,0-0.935,0.17-1.271,0.509c-0.339,0.34-0.507,0.883-0.507,1.631v4.218h-1.23v-4.717c0-0.547-0.101-0.957-0.301-1.23c-0.201-0.273-0.529-0.41-0.984-0.41c-0.347,0-0.667,0.091-0.961,0.273c-0.294,0.182-0.507,0.449-0.639,0.8c-0.133,0.351-0.198,0.857-0.198,1.518v3.767h-1.231V19.028z M54.412,15.398c0-1.344,0.375-2.34,1.121-2.987c0.625-0.538,1.387-0.807,2.283-0.807c0.999,0,1.814,0.327,2.448,0.981c0.633,0.654,0.948,1.558,0.948,2.71c0,0.934-0.139,1.669-0.42,2.205c-0.279,0.535-0.688,0.951-1.224,1.247s-1.12,0.444-1.754,0.444c-1.017,0-1.838-0.326-2.464-0.978C54.727,17.563,54.412,16.624,54.412,15.398z M55.678,15.398c0,0.93,0.203,1.626,0.607,2.089c0.406,0.462,0.916,0.693,1.531,0.693c0.611,0,1.119-0.232,1.523-0.697c0.406-0.465,0.609-1.174,0.609-2.126c0-0.898-0.205-1.578-0.611-2.041c-0.407-0.463-0.914-0.693-1.521-0.693c-0.615,0-1.125,0.23-1.531,0.69C55.881,13.774,55.678,14.469,55.678,15.398z M62.979,19.028V9.007h1.229v10.021H62.979z M69.153,17.928l0.179,1.087c-0.347,0.073-0.656,0.109-0.931,0.109c-0.446,0-0.793-0.07-1.039-0.212c-0.245-0.142-0.42-0.327-0.521-0.558c-0.1-0.229-0.149-0.714-0.149-1.452v-4.176h-0.901v-0.957h0.901V9.971l1.224-0.738v2.536h1.237v0.957h-1.237v4.245c0,0.351,0.021,0.576,0.065,0.677c0.043,0.101,0.112,0.18,0.211,0.239c0.099,0.06,0.238,0.089,0.421,0.089C68.75,17.976,68.932,17.96,69.153,17.928z M70.715,10.422V9.007h1.229v1.415H70.715z M70.715,19.028v-7.26h1.229v7.26H70.715z M47.597,34.934c-0.456,0.389-0.895,0.662-1.316,0.82c-0.421,0.159-0.874,0.239-1.356,0.239c-0.798,0-1.411-0.195-1.839-0.584c-0.429-0.392-0.643-0.888-0.643-1.494c0-0.354,0.081-0.681,0.242-0.976c0.162-0.293,0.374-0.528,0.636-0.707c0.263-0.178,0.558-0.313,0.886-0.402c0.241-0.063,0.605-0.125,1.094-0.186c0.993-0.117,1.725-0.26,2.194-0.424c0.003-0.168,0.006-0.275,0.006-0.32c0-0.502-0.116-0.854-0.349-1.061c-0.314-0.277-0.782-0.417-1.401-0.417c-0.579,0-1.006,0.103-1.282,0.304c-0.275,0.203-0.479,0.563-0.611,1.078l-1.203-0.164c0.109-0.516,0.289-0.932,0.54-1.248c0.25-0.316,0.612-0.561,1.087-0.731c0.474-0.17,1.022-0.257,1.647-0.257c0.619,0,1.123,0.074,1.511,0.22c0.387,0.146,0.672,0.329,0.854,0.551s0.31,0.5,0.383,0.837c0.041,0.211,0.062,0.588,0.062,1.135v1.642c0,1.144,0.026,1.866,0.078,2.171c0.053,0.303,0.156,0.594,0.312,0.871h-1.285C47.714,35.574,47.632,35.275,47.597,34.934z M47.494,32.186c-0.447,0.184-1.117,0.338-2.01,0.465c-0.506,0.074-0.864,0.156-1.073,0.246c-0.21,0.092-0.372,0.226-0.485,0.399c-0.114,0.177-0.171,0.371-0.171,0.585c0,0.328,0.124,0.602,0.372,0.82c0.249,0.219,0.612,0.328,1.091,0.328c0.474,0,0.896-0.104,1.265-0.313c0.369-0.207,0.64-0.49,0.813-0.851c0.132-0.278,0.198-0.688,0.198-1.229V32.186z M50.967,35.829V25.809h1.23v10.021H50.967z M57.143,34.729l0.178,1.088c-0.347,0.072-0.656,0.108-0.93,0.108c-0.447,0-0.793-0.069-1.039-0.212s-0.42-0.326-0.52-0.559c-0.102-0.229-0.15-0.713-0.15-1.451v-4.178h-0.903v-0.957h0.902v-1.797l1.224-0.738v2.535h1.237v0.957h-1.237v4.246c0,0.351,0.021,0.576,0.064,0.676c0.044,0.102,0.113,0.181,0.212,0.24s0.237,0.088,0.421,0.088C56.738,34.775,56.918,34.762,57.143,34.729z M58.682,35.829v-7.261h1.107v1.102c0.282-0.516,0.543-0.854,0.782-1.02c0.238-0.164,0.503-0.246,0.789-0.246c0.414,0,0.836,0.133,1.265,0.396l-0.424,1.143c-0.301-0.178-0.602-0.268-0.902-0.268c-0.269,0-0.51,0.081-0.725,0.242c-0.214,0.162-0.365,0.387-0.457,0.674c-0.138,0.438-0.205,0.916-0.205,1.436v3.802H58.682z M63.715,27.223v-1.414h1.229v1.414H63.715z M63.715,35.829v-7.261h1.229v7.261H63.715z M67.824,33.341l-0.377-5.312v-2.223h1.524v2.223l-0.354,5.312H67.824z M67.502,35.829v-1.401h1.416v1.401H67.502z M31.563,27.751v-3.533h-3.507v-1.477h3.507v-3.507h1.494v3.507h3.507v1.477h-3.507v3.533H31.563z"/></svg>