<svg width="100" height="45" viewBox="0 0 100 45" xmlns="http://www.w3.org/2000/svg"><path fill="#A3A3A3" d="M36.339,17.805v-7.26h1.101v1.019c0.228-0.355,0.531-0.642,0.909-0.858c0.378-0.216,0.809-0.325,1.292-0.325c0.538,0,0.979,0.112,1.323,0.335c0.344,0.223,0.587,0.536,0.728,0.937c0.574-0.848,1.322-1.271,2.242-1.271c0.72,0,1.274,0.199,1.661,0.598c0.387,0.399,0.581,1.013,0.581,1.842v4.983h-1.224v-4.574c0-0.492-0.04-0.847-0.12-1.063s-0.225-0.391-0.434-0.523s-0.455-0.198-0.738-0.198c-0.51,0-0.934,0.17-1.271,0.509c-0.337,0.339-0.506,0.883-0.506,1.63v4.218h-1.23v-4.716c0-0.547-0.1-0.957-0.301-1.23s-0.529-0.41-0.984-0.41c-0.346,0-0.667,0.091-0.96,0.273c-0.293,0.182-0.507,0.449-0.639,0.8s-0.198,0.857-0.198,1.518v3.767L36.339,17.805L36.339,17.805z M53.088,16.909c-0.456,0.388-0.895,0.661-1.315,0.82s-0.874,0.239-1.357,0.239c-0.797,0-1.411-0.195-1.839-0.584c-0.428-0.391-0.643-0.888-0.643-1.494c0-0.355,0.081-0.68,0.243-0.975c0.162-0.293,0.374-0.529,0.636-0.707s0.557-0.312,0.885-0.403c0.242-0.063,0.607-0.125,1.095-0.184c0.994-0.119,1.726-0.26,2.194-0.424c0.004-0.168,0.007-0.276,0.007-0.321c0-0.501-0.116-0.854-0.349-1.06c-0.314-0.277-0.782-0.417-1.401-0.417c-0.579,0-1.006,0.102-1.282,0.304c-0.276,0.202-0.48,0.562-0.612,1.077l-1.203-0.164c0.109-0.515,0.29-0.931,0.54-1.248c0.25-0.317,0.613-0.561,1.087-0.731c0.474-0.17,1.023-0.256,1.647-0.256c0.62,0,1.124,0.073,1.512,0.219c0.387,0.146,0.672,0.329,0.854,0.55c0.182,0.221,0.311,0.5,0.383,0.837c0.041,0.21,0.063,0.588,0.063,1.135v1.641c0,1.144,0.025,1.867,0.079,2.171c0.052,0.303,0.155,0.593,0.311,0.871h-1.286C53.207,17.55,53.125,17.251,53.088,16.909z M52.986,14.161c-0.447,0.182-1.117,0.337-2.01,0.465c-0.506,0.073-0.865,0.155-1.074,0.246c-0.209,0.091-0.372,0.225-0.486,0.399c-0.114,0.176-0.171,0.371-0.171,0.585c0,0.328,0.124,0.602,0.373,0.82c0.249,0.218,0.612,0.328,1.09,0.328c0.475,0,0.896-0.104,1.266-0.312c0.368-0.207,0.64-0.49,0.813-0.851c0.132-0.278,0.198-0.688,0.198-1.23L52.986,14.161L52.986,14.161z M56.487,17.805v-7.26h1.106v1.032c0.533-0.797,1.305-1.196,2.312-1.196c0.438,0,0.84,0.079,1.206,0.236c0.367,0.157,0.643,0.363,0.824,0.619c0.181,0.256,0.311,0.558,0.383,0.909c0.045,0.228,0.067,0.626,0.067,1.196v4.464h-1.229v-4.416c0-0.501-0.048-0.876-0.144-1.125c-0.097-0.249-0.267-0.447-0.51-0.595c-0.244-0.148-0.529-0.222-0.857-0.222c-0.524,0-0.978,0.167-1.356,0.499c-0.381,0.333-0.571,0.964-0.571,1.894v3.965H56.487z M64.568,20.601l-0.137-1.155c0.27,0.073,0.504,0.109,0.703,0.109c0.273,0,0.492-0.046,0.656-0.137s0.298-0.219,0.403-0.383c0.078-0.123,0.203-0.429,0.376-0.916c0.021-0.068,0.06-0.169,0.109-0.301l-2.756-7.273h1.326l1.511,4.204c0.196,0.533,0.372,1.094,0.526,1.682c0.142-0.565,0.312-1.116,0.506-1.654l1.553-4.231h1.229l-2.762,7.383c-0.296,0.798-0.526,1.347-0.69,1.647c-0.219,0.405-0.469,0.703-0.752,0.892c-0.283,0.189-0.619,0.284-1.012,0.284C65.125,20.751,64.859,20.701,64.568,20.601z M35.881,30.977c0-1.346,0.374-2.341,1.121-2.988c0.625-0.537,1.385-0.807,2.283-0.807c0.998,0,1.814,0.327,2.447,0.98c0.633,0.653,0.95,1.559,0.95,2.711c0,0.936-0.14,1.669-0.42,2.205c-0.28,0.535-0.688,0.951-1.224,1.247s-1.12,0.444-1.753,0.444c-1.016,0-1.838-0.326-2.464-0.979S35.881,32.201,35.881,30.977z M37.146,30.977c0,0.93,0.203,1.625,0.608,2.088c0.406,0.463,0.916,0.693,1.531,0.693c0.611,0,1.119-0.232,1.524-0.697c0.405-0.465,0.608-1.174,0.608-2.125c0-0.897-0.204-1.578-0.612-2.041c-0.408-0.463-0.915-0.693-1.521-0.693c-0.615,0-1.125,0.229-1.531,0.689C37.347,29.352,37.146,30.046,37.146,30.977z M47.162,33.505l0.178,1.087c-0.346,0.073-0.656,0.109-0.93,0.109c-0.447,0-0.793-0.07-1.039-0.213c-0.246-0.141-0.419-0.326-0.52-0.557c-0.1-0.229-0.15-0.715-0.15-1.453v-4.177h-0.902v-0.957h0.902v-1.798l1.224-0.738v2.536h1.237v0.957h-1.237v4.245c0,0.352,0.021,0.576,0.065,0.678c0.044,0.101,0.114,0.18,0.212,0.238c0.098,0.059,0.238,0.09,0.42,0.09C46.758,33.553,46.938,33.537,47.162,33.505z M48.715,34.605V24.584h1.23v3.596c0.575-0.665,1.299-0.998,2.174-0.998c0.538,0,1.005,0.105,1.401,0.318c0.396,0.211,0.68,0.504,0.851,0.878s0.256,0.916,0.256,1.627v4.601h-1.229v-4.601c0-0.614-0.133-1.063-0.4-1.343c-0.267-0.281-0.644-0.421-1.131-0.421c-0.365,0-0.708,0.095-1.029,0.283c-0.32,0.188-0.55,0.445-0.687,0.77c-0.137,0.324-0.205,0.771-0.205,1.34v3.972H48.715L48.715,34.605z M61.82,32.268l1.271,0.157c-0.2,0.743-0.571,1.319-1.113,1.729s-1.235,0.615-2.078,0.615c-1.063,0-1.904-0.328-2.526-0.98c-0.622-0.654-0.933-1.571-0.933-2.752c0-1.223,0.313-2.169,0.942-2.845c0.63-0.675,1.444-1.012,2.447-1.012c0.971,0,1.764,0.33,2.379,0.991s0.923,1.592,0.923,2.789c0,0.073-0.002,0.184-0.007,0.328h-5.413c0.045,0.798,0.271,1.408,0.678,1.832c0.405,0.424,0.911,0.636,1.518,0.636c0.451,0,0.836-0.118,1.155-0.354C61.381,33.165,61.633,32.787,61.82,32.268z M57.78,30.277h4.054c-0.055-0.609-0.209-1.067-0.465-1.374c-0.393-0.474-0.9-0.711-1.523-0.711c-0.565,0-1.04,0.189-1.426,0.567C58.034,29.139,57.821,29.645,57.78,30.277z M64.974,34.605v-7.261h1.106v1.101c0.283-0.515,0.544-0.854,0.783-1.019s0.502-0.246,0.789-0.246c0.415,0,0.837,0.132,1.266,0.396l-0.424,1.142c-0.301-0.178-0.602-0.267-0.902-0.267c-0.27,0-0.511,0.081-0.725,0.241c-0.215,0.162-0.367,0.388-0.459,0.675c-0.137,0.438-0.205,0.916-0.205,1.437v3.801H64.974z M69.507,32.438l1.218-0.19c0.067,0.487,0.259,0.86,0.57,1.121c0.313,0.26,0.748,0.39,1.31,0.39c0.563,0,0.983-0.115,1.258-0.346c0.272-0.229,0.41-0.5,0.41-0.811c0-0.277-0.121-0.496-0.362-0.656c-0.169-0.108-0.588-0.248-1.258-0.416c-0.902-0.229-1.528-0.426-1.876-0.592c-0.351-0.166-0.613-0.396-0.793-0.689c-0.182-0.295-0.271-0.619-0.271-0.975c0-0.323,0.074-0.624,0.223-0.898c0.147-0.276,0.35-0.505,0.604-0.688c0.191-0.142,0.452-0.261,0.783-0.358c0.33-0.099,0.684-0.146,1.063-0.146c0.57,0,1.07,0.082,1.5,0.246c0.433,0.164,0.749,0.387,0.954,0.666c0.205,0.281,0.348,0.655,0.425,1.125l-1.203,0.164c-0.056-0.374-0.213-0.665-0.477-0.875c-0.262-0.21-0.632-0.314-1.109-0.314c-0.565,0-0.969,0.095-1.21,0.28c-0.242,0.187-0.362,0.405-0.362,0.656c0,0.159,0.05,0.304,0.149,0.431c0.102,0.133,0.258,0.242,0.473,0.328c0.123,0.047,0.484,0.15,1.087,0.314c0.87,0.232,1.478,0.423,1.821,0.57c0.345,0.147,0.614,0.363,0.811,0.646s0.294,0.634,0.294,1.054c0,0.409-0.12,0.797-0.357,1.157c-0.24,0.363-0.586,0.644-1.036,0.843c-0.453,0.197-0.963,0.297-1.533,0.297c-0.943,0-1.662-0.195-2.157-0.588C69.959,33.79,69.645,33.209,69.507,32.438z M78.006,32.117l-0.377-5.313v-2.222h1.525v2.222l-0.355,5.313H78.006z M77.685,34.605v-1.401h1.416v1.401H77.685z M25.043,26.526v-3.532h-3.507v-1.477h3.507V18.01h1.494v3.507h3.507v1.477h-3.507v3.532H25.043z"/></svg>