<svg width="100" height="45" viewBox="0 0 100 45" xmlns="http://www.w3.org/2000/svg"><path fill="#A3A3A3" d="M33.374,10.544h1.914l1.907,5.811l2.119-5.811h1.771v7.26h-1.23v-5.845l-2.146,5.845h-1.101l-2.03-6.125v6.125h-1.203L33.374,10.544L33.374,10.544z M43.322,10.544h1.23v3.021h3.411v-3.021h1.23v7.26h-1.23v-3.22h-3.411v3.22h-1.23V10.544z M50.939,14.174c0-1.344,0.374-2.34,1.121-2.987c0.624-0.538,1.385-0.807,2.282-0.807c0.998,0,1.814,0.327,2.447,0.981c0.633,0.654,0.95,1.558,0.95,2.71c0,0.934-0.14,1.669-0.42,2.205c-0.28,0.535-0.688,0.951-1.224,1.247c-0.536,0.296-1.12,0.444-1.754,0.444c-1.016,0-1.838-0.326-2.464-0.978C51.253,16.337,50.939,15.399,50.939,14.174z M52.203,14.174c0,0.93,0.203,1.626,0.608,2.089c0.405,0.462,0.916,0.693,1.53,0.693c0.611,0,1.119-0.232,1.524-0.697c0.405-0.465,0.608-1.174,0.608-2.126c0-0.898-0.204-1.578-0.612-2.041c-0.408-0.463-0.913-0.694-1.52-0.694c-0.614,0-1.125,0.23-1.53,0.69C52.406,12.548,52.203,13.244,52.203,14.174z M59.539,10.544h4.177v1.019h-2.945v6.241h-1.23L59.539,10.544L59.539,10.544z M64.225,14.174c0-1.344,0.373-2.34,1.12-2.987c0.624-0.538,1.386-0.807,2.283-0.807c0.998,0,1.813,0.327,2.447,0.981c0.633,0.654,0.949,1.558,0.949,2.71c0,0.934-0.141,1.669-0.42,2.205c-0.28,0.535-0.688,0.951-1.225,1.247s-1.12,0.444-1.753,0.444c-1.017,0-1.838-0.326-2.465-0.978C64.535,16.337,64.225,15.399,64.225,14.174z M65.487,14.174c0,0.93,0.203,1.626,0.609,2.089c0.404,0.462,0.915,0.693,1.53,0.693c0.61,0,1.118-0.232,1.523-0.697c0.406-0.465,0.608-1.174,0.608-2.126c0-0.898-0.204-1.578-0.611-2.041c-0.407-0.463-0.915-0.694-1.521-0.694c-0.615,0-1.126,0.23-1.531,0.69C65.69,12.549,65.487,13.244,65.487,14.174z M34.311,27.346h5.059v6.247h0.786v3.069h-1.012v-2.058h-5.715v2.058h-1.012v-3.069h0.649C33.932,32.417,34.347,30.334,34.311,27.346z M35.336,28.363c-0.091,2.356-0.456,4.1-1.094,5.229h3.903v-5.229H35.336z M41.859,37.388V27.346h1.121v0.942c0.264-0.369,0.563-0.646,0.896-0.83c0.333-0.186,0.736-0.276,1.21-0.276c0.62,0,1.167,0.158,1.641,0.479s0.832,0.771,1.073,1.351c0.242,0.582,0.362,1.219,0.362,1.91c0,0.743-0.133,1.411-0.4,2.008c-0.267,0.594-0.654,1.049-1.162,1.366c-0.508,0.315-1.042,0.476-1.603,0.476c-0.41,0-0.778-0.088-1.104-0.26c-0.326-0.174-0.594-0.393-0.803-0.656v3.533H41.859L41.859,37.388z M42.973,31.017c0,0.935,0.189,1.625,0.567,2.07c0.378,0.446,0.836,0.67,1.374,0.67c0.547,0,1.015-0.23,1.405-0.693c0.39-0.463,0.584-1.18,0.584-2.149c0-0.925-0.19-1.618-0.571-2.078s-0.835-0.689-1.364-0.689c-0.524,0-0.988,0.245-1.391,0.734C43.175,29.369,42.973,30.081,42.973,31.017z M49.783,37.399l-0.137-1.154c0.269,0.072,0.503,0.109,0.704,0.109c0.273,0,0.492-0.047,0.656-0.138s0.3-0.218,0.404-0.382c0.078-0.123,0.203-0.429,0.376-0.916c0.023-0.068,0.059-0.169,0.109-0.301l-2.755-7.272h1.326l1.512,4.203c0.195,0.533,0.372,1.095,0.525,1.683c0.142-0.565,0.311-1.116,0.506-1.654l1.553-4.23h1.229l-2.762,7.383c-0.296,0.797-0.526,1.347-0.69,1.646c-0.219,0.405-0.469,0.703-0.752,0.893c-0.282,0.188-0.62,0.283-1.012,0.283C50.339,37.552,50.075,37.501,49.783,37.399z M57.194,27.346h4.177v1.019h-2.946v6.24h-1.229L57.194,27.346L57.194,27.346z M62.645,27.346h1.229v5.536l3.412-5.536h1.326v7.259h-1.23v-5.502l-3.412,5.502h-1.325V27.346z M69.994,34.604l2.652-3.773l-2.454-3.485h1.538l1.113,1.701c0.209,0.323,0.38,0.595,0.507,0.813c0.2-0.301,0.385-0.567,0.554-0.801l1.224-1.715h1.471l-2.51,3.418l2.7,3.842h-1.511l-1.49-2.256l-0.396-0.608l-1.907,2.864H69.994z M78.821,32.116l-0.377-5.312v-2.223h1.524v2.223l-0.354,5.312H78.821z M78.499,34.604v-1.401h1.416v1.401H78.499z M22.044,26.526v-3.533h-3.507v-1.477h3.507v-3.507h1.494v3.507h3.507v1.477h-3.507v3.533H22.044z"/></svg>