<svg width="100" height="45" viewBox="0 0 100 45" xmlns="http://www.w3.org/2000/svg"><path fill="#A3A3A3" d="M14.706,17.023c2.605,0,5.883-0.266,6.85-0.588l0.336,0.882c-0.154,0.042-0.364,0.224-0.658,0.476c-1.415,1.178-3.46,2.648-5.127,3.797c1.947-0.406,5.925-1.009,8.545-0.967v0.994c-0.196-0.014-0.42-0.014-0.63-0.014c-0.756,0-1.555,0.057-2.143,0.211c-1.205,0.336-4.119,2.059-4.119,3.977c0,0.869,0.533,1.164,0.729,1.262c0.63,0.35,2.157,0.602,3.474,0.686l-0.308,0.98c-3.39-0.266-4.945-1.049-4.945-2.842c0-1.809,1.961-3.334,3.334-4.063c-2.396,0.252-4.763,0.742-7.088,1.344l-0.182-0.952c0.813-0.168,1.387-0.364,1.835-0.63c1.05-0.617,4.146-2.887,5.309-3.992c-0.868,0.14-2.619,0.279-3.417,0.322c-0.406,0.027-0.967,0.041-1.331,0.069c-0.056,0.07-0.224,0.169-0.364,0.169L14.706,17.023z M33.706,18.536c-0.056,0.126-0.168,0.224-0.351,0.224c-0.504,4.357-1.961,8.152-4.286,8.152c-1.177,0-2.241-1.176-2.241-3.389c0-3.362,2.62-6.178,6.303-6.178c4.048,0,5.799,2.563,5.799,5.295c0,3.334-1.933,4.943-5.323,5.729c-0.126-0.225-0.364-0.602-0.588-0.854c3.222-0.617,4.875-2.187,4.875-4.834c0-2.311-1.485-4.412-4.763-4.412c-0.14,0-0.294,0.014-0.42,0.028L33.706,18.536z M32.36,18.354c-2.83,0.351-4.581,2.689-4.581,5.141c0,1.5,0.644,2.438,1.316,2.438C30.792,25.932,32.01,22.191,32.36,18.354z M42.479,20.973c-0.504,0.855-1.037,1.64-1.597,2.298c-0.112-0.225-0.336-0.673-0.49-0.882c1.289-1.457,2.549-3.895,3.333-6.318l1.107,0.365c-0.028,0.098-0.14,0.153-0.309,0.14c-0.336,0.938-0.728,1.877-1.176,2.773l0.322,0.099c-0.014,0.084-0.098,0.153-0.28,0.182v9.386h-0.91V20.973z M46.612,26.801c0,0.826,0.196,1.021,1.247,1.021h3.852c0.953,0,1.106-0.447,1.248-2.24c0.224,0.168,0.603,0.322,0.869,0.379c-0.183,2.059-0.504,2.73-2.088,2.73h-3.88c-1.667,0-2.171-0.379-2.171-1.904v-4.735l-1.569,0.546l-0.294-0.826l1.863-0.645v-3.879l1.191,0.084c-0.014,0.098-0.084,0.153-0.266,0.182v3.306l2.325-0.798v-3.853l1.177,0.084c-0.014,0.099-0.098,0.153-0.266,0.183V19.7l2.549-0.869c0.07-0.07,0.099-0.098,0.196-0.168l0.757,0.295c-0.015,0.041-0.084,0.098-0.14,0.139c-0.014,2.536-0.057,4.637-0.168,5.197c-0.154,0.968-0.729,1.095-2.354,1.037c-0.027-0.267-0.111-0.658-0.238-0.884c0.448,0.027,1.037,0.027,1.218,0.027c0.267,0,0.406-0.055,0.49-0.42c0.098-0.35,0.141-1.975,0.141-4.286l-2.451,0.854v5.113H48.94v-4.805l-2.325,0.813v5.057H46.612z M65.08,17.149l0.672,0.378c-0.041,0.07-0.098,0.098-0.168,0.127c-1.834,3.165-6.008,5.196-9.678,6.008c-0.099-0.237-0.295-0.629-0.463-0.84c1.821-0.336,3.795-1.022,5.491-2.003c-0.532-0.421-1.345-0.925-2.031-1.261l0.632-0.547c0.741,0.351,1.639,0.883,2.198,1.317c1.022-0.658,1.892-1.442,2.535-2.312h-4.218c-1.02,0.757-2.254,1.499-3.725,2.129c-0.141-0.224-0.435-0.546-0.645-0.699c2.438-0.953,4.3-2.313,5.309-3.488l1.232,0.252c-0.028,0.098-0.126,0.154-0.309,0.168c-0.252,0.266-0.547,0.547-0.854,0.826h3.864L65.08,17.149z M67.041,22.137l0.168-0.057c0.533,0.266,0.604,0.309,0.658,0.35c-0.014,0.07-0.084,0.099-0.154,0.141c-1.819,3.992-6.26,5.799-10.854,6.471c-0.069-0.267-0.252-0.658-0.405-0.867c2.228-0.28,4.469-0.868,6.332-1.85c-0.604-0.548-1.541-1.191-2.341-1.625l0.701-0.532c0.84,0.448,1.849,1.12,2.465,1.682c1.19-0.757,2.171-1.709,2.83-2.886h-4.313c-1.219,0.854-2.746,1.681-4.553,2.367c-0.127-0.226-0.393-0.547-0.589-0.715c2.927-1.009,5.113-2.479,6.276-3.796l1.232,0.252c-0.043,0.099-0.142,0.154-0.322,0.169c-0.295,0.293-0.617,0.588-0.967,0.896H67.041z M72.47,22.234v-1.836c-0.716,0.869-1.669,1.682-2.578,2.172c-0.11-0.21-0.336-0.532-0.519-0.715c1.037-0.447,2.172-1.387,2.844-2.367h-2.76v-0.799h3.013V16l1.147,0.07c-0.014,0.099-0.084,0.168-0.266,0.183v2.437h2.969v0.799h-2.969v0.322c0.574,0.336,2.072,1.303,2.451,1.583l-0.547,0.687c-0.336-0.322-1.232-1.022-1.904-1.513v1.667L72.47,22.234L72.47,22.234z M76.377,24.434h-1.262c-0.209,0.867-0.531,1.596-0.994,2.228c0.631,0.336,1.191,0.672,1.625,0.993l-0.631,0.701c-0.42-0.336-0.98-0.686-1.596-1.022c-0.827,0.744-1.947,1.289-3.475,1.668c-0.07-0.252-0.267-0.604-0.448-0.799c1.331-0.267,2.339-0.687,3.096-1.304c-0.532-0.266-1.079-0.518-1.625-0.742l-0.28,0.505l-0.826-0.31c0.31-0.518,0.688-1.203,1.052-1.918H69.43v-0.826h2.003c0.226-0.463,0.448-0.925,0.631-1.345l1.106,0.252c-0.043,0.099-0.127,0.141-0.31,0.127c-0.14,0.294-0.294,0.63-0.462,0.966h3.979V24.434z M70.76,16.393c0.421,0.574,0.826,1.346,0.98,1.863l-0.742,0.35c-0.141-0.504-0.547-1.303-0.953-1.891L70.76,16.393z M71.992,24.434c-0.182,0.351-0.363,0.699-0.547,1.037c0.631,0.236,1.262,0.504,1.863,0.783c0.406-0.504,0.688-1.105,0.883-1.82H71.992z M73.953,18.27c0.379-0.504,0.869-1.33,1.135-1.891l0.98,0.434c-0.042,0.099-0.154,0.113-0.279,0.099c-0.295,0.505-0.799,1.219-1.19,1.694L73.953,18.27z M82.457,19.517h-0.938c-0.337,2.312-0.884,4.23-1.767,5.784c0.715,1.275,1.641,2.283,2.815,2.9c-0.224,0.195-0.519,0.547-0.672,0.813c-1.121-0.658-2.003-1.625-2.718-2.816c-0.854,1.179-1.961,2.115-3.418,2.816c-0.098-0.225-0.35-0.617-0.518-0.799c1.498-0.686,2.618-1.666,3.444-2.955c-0.574-1.191-1.008-2.563-1.33-4.063c-0.28,0.645-0.573,1.219-0.911,1.695c-0.152-0.182-0.49-0.463-0.714-0.603c0.994-1.401,1.709-3.866,2.115-6.304l1.19,0.252c-0.029,0.113-0.127,0.168-0.309,0.168c-0.141,0.743-0.309,1.5-0.505,2.229h4.229v0.883H82.457z M77.974,19.517l-0.041,0.14c0.278,1.682,0.7,3.25,1.303,4.608c0.644-1.316,1.05-2.899,1.33-4.749H77.974z M85.49,27.066c0-0.504,0.393-0.91,0.868-0.91s0.868,0.406,0.868,0.91s-0.393,0.91-0.868,0.91C85.854,27.977,85.49,27.543,85.49,27.066z M85.91,24.811l-0.211-7.675h1.346l-0.211,7.675H85.91z"/></svg>