<svg width="100" height="45" viewBox="0 0 100 45" xmlns="http://www.w3.org/2000/svg"><path fill="#A3A3A3" d="M35.669,19.029l-2.762-7.26h1.299l1.559,4.348c0.168,0.469,0.324,0.957,0.465,1.463c0.109-0.383,0.262-0.844,0.458-1.381l1.613-4.43h1.265l-2.748,7.26H35.669z M41.01,10.421V9.007h1.23v1.415H41.01z M41.01,19.029v-7.26h1.23v7.26H41.01z M49.433,16.69l1.271,0.157c-0.201,0.743-0.572,1.319-1.114,1.729s-1.235,0.615-2.078,0.615c-1.063,0-1.904-0.327-2.526-0.98c-0.622-0.654-0.933-1.572-0.933-2.752c0-1.221,0.314-2.169,0.943-2.844c0.629-0.675,1.445-1.012,2.447-1.012c0.971,0,1.764,0.331,2.379,0.991c0.615,0.66,0.923,1.59,0.923,2.789c0,0.073-0.002,0.182-0.007,0.328h-5.415c0.045,0.798,0.271,1.408,0.677,1.832c0.406,0.424,0.912,0.636,1.518,0.636c0.451,0,0.836-0.118,1.155-0.355C48.993,17.587,49.246,17.209,49.433,16.69z M45.393,14.702h4.054c-0.055-0.611-0.209-1.069-0.465-1.374c-0.392-0.474-0.9-0.711-1.524-0.711c-0.565,0-1.04,0.189-1.425,0.567C45.648,13.562,45.434,14.068,45.393,14.702z M52.572,19.029V9.007h1.229v10.021L52.572,19.029L52.572,19.029z M61.029,16.69l1.271,0.157c-0.2,0.743-0.571,1.319-1.112,1.729c-0.543,0.41-1.235,0.615-2.078,0.615c-1.063,0-1.904-0.327-2.526-0.98c-0.623-0.654-0.935-1.572-0.935-2.752c0-1.221,0.314-2.169,0.943-2.844c0.629-0.675,1.445-1.012,2.448-1.012c0.971,0,1.765,0.331,2.379,0.991c0.615,0.66,0.922,1.59,0.922,2.789c0,0.073-0.002,0.182-0.006,0.328h-5.414c0.045,0.798,0.271,1.408,0.677,1.832c0.406,0.424,0.912,0.636,1.518,0.636c0.451,0,0.837-0.118,1.156-0.355C60.589,17.587,60.842,17.209,61.029,16.69z M56.988,14.702h4.054c-0.056-0.611-0.209-1.069-0.465-1.374c-0.392-0.475-0.899-0.711-1.522-0.711c-0.566,0-1.041,0.189-1.427,0.567C57.243,13.562,57.029,14.068,56.988,14.702z M38.39,34.934c-0.456,0.388-0.895,0.661-1.316,0.819c-0.421,0.16-0.874,0.24-1.357,0.24c-0.797,0-1.411-0.195-1.839-0.584c-0.428-0.392-0.643-0.889-0.643-1.494c0-0.355,0.081-0.68,0.243-0.976c0.162-0.293,0.374-0.528,0.636-0.707c0.262-0.178,0.557-0.313,0.885-0.403c0.242-0.063,0.606-0.125,1.094-0.185c0.994-0.118,1.725-0.26,2.194-0.424c0.004-0.169,0.007-0.274,0.007-0.321c0-0.501-0.116-0.854-0.349-1.06c-0.314-0.278-0.782-0.417-1.401-0.417c-0.579,0-1.006,0.102-1.282,0.304c-0.276,0.203-0.479,0.563-0.612,1.077l-1.203-0.164c0.109-0.515,0.29-0.931,0.54-1.247s0.613-0.561,1.087-0.732c0.474-0.17,1.023-0.256,1.647-0.256c0.62,0,1.124,0.073,1.511,0.219c0.387,0.146,0.672,0.33,0.854,0.552c0.182,0.221,0.31,0.5,0.383,0.837c0.041,0.21,0.062,0.588,0.062,1.135v1.642c0,1.144,0.026,1.867,0.079,2.17c0.052,0.304,0.156,0.594,0.311,0.871h-1.285C38.509,35.575,38.427,35.276,38.39,34.934z M38.288,32.186c-0.447,0.183-1.117,0.337-2.01,0.466c-0.506,0.072-0.864,0.154-1.073,0.245s-0.372,0.226-0.485,0.399c-0.114,0.176-0.171,0.371-0.171,0.585c0,0.327,0.124,0.602,0.373,0.819c0.249,0.219,0.612,0.328,1.09,0.328c0.474,0,0.896-0.104,1.265-0.312c0.369-0.207,0.64-0.49,0.813-0.851c0.132-0.279,0.198-0.688,0.198-1.23V32.186z M41.789,35.829v-7.261h1.107v1.032c0.533-0.798,1.303-1.196,2.311-1.196c0.438,0,0.84,0.078,1.207,0.236c0.367,0.156,0.642,0.363,0.824,0.618c0.182,0.255,0.31,0.56,0.383,0.909c0.045,0.228,0.068,0.626,0.068,1.196v4.463h-1.23v-4.416c0-0.5-0.048-0.875-0.144-1.125c-0.096-0.247-0.266-0.445-0.509-0.593c-0.244-0.148-0.53-0.224-0.858-0.224c-0.524,0-0.977,0.166-1.357,0.499c-0.38,0.333-0.571,0.964-0.571,1.894v3.965h-1.231V35.829z M54.635,35.829v-0.916c-0.46,0.72-1.137,1.08-2.029,1.08c-0.58,0-1.111-0.16-1.597-0.479s-0.861-0.765-1.128-1.336c-0.267-0.572-0.4-1.229-0.4-1.974c0-0.725,0.121-1.381,0.362-1.973c0.242-0.59,0.604-1.042,1.087-1.356c0.483-0.313,1.023-0.471,1.62-0.471c0.438,0,0.827,0.092,1.169,0.276s0.62,0.425,0.834,0.722v-3.597h1.225v10.021h-1.143V35.829z M50.746,32.206c0,0.93,0.195,1.625,0.588,2.084c0.393,0.461,0.854,0.69,1.389,0.69c0.537,0,0.994-0.22,1.37-0.659s0.563-1.111,0.563-2.014c0-0.993-0.19-1.723-0.573-2.188c-0.384-0.465-0.856-0.695-1.416-0.695c-0.547,0-1.004,0.224-1.371,0.67C50.93,30.54,50.746,31.245,50.746,32.206z M63.031,33.491l1.271,0.157c-0.2,0.743-0.571,1.319-1.114,1.729c-0.541,0.41-1.234,0.615-2.078,0.615c-1.062,0-1.902-0.328-2.525-0.98c-0.622-0.654-0.934-1.571-0.934-2.752c0-1.223,0.314-2.169,0.943-2.845c0.629-0.674,1.444-1.012,2.447-1.012c0.971,0,1.764,0.33,2.379,0.991s0.923,1.592,0.923,2.789c0,0.073-0.002,0.184-0.007,0.328h-5.414c0.046,0.798,0.271,1.408,0.678,1.832c0.405,0.424,0.911,0.636,1.518,0.636c0.451,0,0.836-0.118,1.154-0.354C62.591,34.389,62.843,34.011,63.031,33.491z M58.99,31.501h4.055c-0.055-0.609-0.209-1.067-0.465-1.374c-0.393-0.473-0.9-0.711-1.523-0.711c-0.566,0-1.041,0.189-1.426,0.568C59.245,30.362,59.031,30.868,58.99,31.501z M66.184,35.829v-7.261h1.106v1.102c0.282-0.516,0.544-0.854,0.782-1.02c0.24-0.164,0.502-0.246,0.789-0.246c0.416,0,0.838,0.133,1.267,0.396l-0.424,1.143c-0.302-0.179-0.603-0.268-0.902-0.268c-0.271,0-0.511,0.081-0.725,0.242c-0.216,0.162-0.367,0.387-0.459,0.674c-0.138,0.438-0.205,0.916-0.205,1.437v3.801H66.184z M76.18,33.491l1.27,0.157c-0.2,0.743-0.571,1.319-1.113,1.729s-1.234,0.615-2.078,0.615c-1.063,0-1.902-0.328-2.525-0.98c-0.621-0.654-0.934-1.571-0.934-2.752c0-1.223,0.314-2.169,0.943-2.845c0.629-0.674,1.443-1.012,2.447-1.012c0.971,0,1.764,0.33,2.379,0.991s0.922,1.592,0.922,2.789c0,0.073-0.002,0.184-0.006,0.328H72.07c0.045,0.798,0.271,1.408,0.677,1.832c0.405,0.424,0.912,0.636,1.519,0.636c0.45,0,0.836-0.118,1.154-0.354C75.738,34.389,75.992,34.011,76.18,33.491z M72.139,31.501h4.055c-0.055-0.609-0.209-1.067-0.465-1.374c-0.394-0.473-0.9-0.711-1.524-0.711c-0.565,0-1.04,0.189-1.425,0.568C72.393,30.362,72.18,30.868,72.139,31.501z M80.002,33.341l-0.375-5.312v-2.223h1.523v2.223l-0.355,5.312H80.002z M79.682,35.829v-1.401h1.414v1.401H79.682z M22.357,27.75v-3.532H18.85v-1.477h3.507v-3.507h1.494v3.507h3.507v1.477h-3.507v3.532H22.357z"/></svg>