<svg width="100" height="45" viewBox="0 0 100 45" xmlns="http://www.w3.org/2000/svg"><path fill="#A3A3A3" d="M32.746,19.029v-7.26h1.102v1.019c0.228-0.355,0.53-0.642,0.909-0.858c0.378-0.216,0.809-0.325,1.292-0.325c0.537,0,0.979,0.112,1.322,0.335c0.345,0.223,0.587,0.536,0.729,0.937c0.574-0.848,1.322-1.271,2.242-1.271c0.72,0,1.273,0.199,1.66,0.598c0.388,0.399,0.581,1.013,0.581,1.842v4.983H41.36v-4.574c0-0.492-0.04-0.847-0.12-1.063S41.016,13,40.807,12.869s-0.456-0.198-0.738-0.198c-0.51,0-0.934,0.17-1.271,0.509c-0.338,0.339-0.507,0.883-0.507,1.63v4.218h-1.229v-4.716c0-0.547-0.101-0.957-0.301-1.23c-0.201-0.273-0.529-0.41-0.984-0.41c-0.346,0-0.667,0.091-0.96,0.273c-0.293,0.182-0.507,0.449-0.639,0.8c-0.133,0.351-0.198,0.857-0.198,1.518v3.767L32.746,19.029L32.746,19.029z M49.517,19.029v-1.066c-0.565,0.82-1.333,1.23-2.305,1.23c-0.428,0-0.827-0.082-1.199-0.246s-0.647-0.37-0.827-0.619c-0.18-0.248-0.308-0.552-0.379-0.912c-0.05-0.241-0.075-0.625-0.075-1.148v-4.499h1.229v4.026c0,0.643,0.025,1.075,0.075,1.299c0.078,0.323,0.242,0.577,0.492,0.763c0.25,0.184,0.562,0.276,0.93,0.276c0.369,0,0.716-0.095,1.039-0.284c0.324-0.188,0.554-0.446,0.688-0.771c0.134-0.326,0.202-0.799,0.202-1.419v-3.89h1.229v7.26H49.517z M57.633,16.37l1.21,0.157c-0.133,0.834-0.472,1.486-1.016,1.959c-0.544,0.471-1.213,0.707-2.006,0.707c-0.994,0-1.792-0.324-2.396-0.975c-0.604-0.648-0.906-1.58-0.906-2.792c0-0.784,0.13-1.47,0.39-2.058s0.655-1.029,1.187-1.323c0.53-0.294,1.107-0.441,1.732-0.441c0.789,0,1.434,0.199,1.936,0.598s0.822,0.965,0.964,1.699l-1.197,0.185c-0.114-0.487-0.315-0.854-0.604-1.1c-0.289-0.246-0.64-0.369-1.051-0.369c-0.619,0-1.124,0.222-1.511,0.667c-0.387,0.445-0.58,1.147-0.58,2.108c0,0.975,0.188,1.684,0.562,2.126s0.86,0.663,1.463,0.663c0.482,0,0.886-0.148,1.21-0.444C57.343,17.44,57.547,16.985,57.633,16.37z M60.244,19.029V9.007h1.23v3.596c0.574-0.666,1.299-0.998,2.174-0.998c0.538,0,1.005,0.106,1.401,0.318c0.396,0.212,0.68,0.505,0.852,0.878c0.17,0.374,0.256,0.916,0.256,1.627v4.601h-1.229v-4.601c0-0.615-0.134-1.063-0.4-1.343c-0.266-0.28-0.643-0.42-1.131-0.42c-0.365,0-0.707,0.095-1.029,0.284c-0.319,0.189-0.55,0.445-0.687,0.769c-0.138,0.324-0.205,0.77-0.205,1.34v3.972L60.244,19.029L60.244,19.029z M67.924,15.398c0-1.344,0.373-2.34,1.12-2.987c0.624-0.538,1.386-0.807,2.283-0.807c0.998,0,1.813,0.327,2.447,0.981c0.633,0.654,0.949,1.558,0.949,2.71c0,0.934-0.141,1.669-0.42,2.205c-0.28,0.535-0.688,0.951-1.225,1.247s-1.12,0.444-1.753,0.444c-1.017,0-1.838-0.326-2.465-0.978C68.234,17.562,67.924,16.624,67.924,15.398z M69.188,15.398c0,0.93,0.203,1.626,0.609,2.089c0.404,0.462,0.915,0.693,1.53,0.693c0.61,0,1.118-0.232,1.523-0.697c0.406-0.465,0.608-1.174,0.608-2.126c0-0.898-0.204-1.578-0.611-2.041c-0.407-0.463-0.915-0.694-1.521-0.694c-0.615,0-1.126,0.23-1.531,0.69C69.391,13.773,69.188,14.469,69.188,15.398z M76.025,16.862l1.217-0.191c0.068,0.487,0.259,0.861,0.57,1.121c0.313,0.26,0.749,0.39,1.31,0.39c0.565,0,0.984-0.115,1.259-0.346c0.272-0.229,0.409-0.5,0.409-0.81c0-0.278-0.12-0.497-0.361-0.656c-0.168-0.109-0.588-0.249-1.259-0.417c-0.901-0.229-1.526-0.425-1.877-0.591c-0.348-0.167-0.611-0.396-0.793-0.69c-0.18-0.294-0.27-0.619-0.27-0.974c0-0.324,0.074-0.623,0.223-0.899c0.147-0.276,0.351-0.505,0.604-0.687c0.19-0.141,0.452-0.261,0.782-0.359c0.33-0.098,0.686-0.147,1.063-0.147c0.569,0,1.069,0.082,1.501,0.246c0.43,0.164,0.748,0.386,0.953,0.667c0.205,0.281,0.346,0.655,0.424,1.125l-1.203,0.164c-0.055-0.374-0.213-0.666-0.475-0.875c-0.262-0.211-0.632-0.316-1.11-0.316c-0.563,0-0.969,0.093-1.21,0.28s-0.362,0.406-0.362,0.656c0,0.16,0.052,0.303,0.15,0.431c0.1,0.132,0.258,0.242,0.472,0.328c0.123,0.045,0.485,0.15,1.088,0.314c0.87,0.232,1.478,0.423,1.821,0.571s0.613,0.363,0.811,0.646c0.195,0.283,0.294,0.633,0.294,1.053c0,0.41-0.119,0.797-0.359,1.158c-0.238,0.363-0.584,0.643-1.035,0.842c-0.451,0.197-0.961,0.297-1.53,0.297c-0.943,0-1.662-0.196-2.156-0.588C76.478,18.212,76.161,17.632,76.025,16.862z M32.746,35.829v-7.261h1.102v1.02c0.228-0.355,0.53-0.643,0.909-0.858c0.378-0.216,0.809-0.323,1.292-0.323c0.537,0,0.979,0.11,1.322,0.334c0.345,0.225,0.587,0.535,0.729,0.938c0.574-0.848,1.322-1.271,2.242-1.271c0.72,0,1.273,0.199,1.66,0.598c0.388,0.4,0.581,1.015,0.581,1.844v4.983H41.36v-4.573c0-0.492-0.04-0.847-0.12-1.063c-0.08-0.217-0.225-0.392-0.434-0.522c-0.209-0.132-0.456-0.198-0.738-0.198c-0.51,0-0.934,0.17-1.271,0.51c-0.338,0.339-0.507,0.884-0.507,1.63v4.219h-1.229v-4.717c0-0.547-0.101-0.958-0.301-1.23c-0.201-0.272-0.529-0.41-0.984-0.41c-0.346,0-0.667,0.091-0.96,0.272c-0.293,0.183-0.507,0.449-0.639,0.801c-0.133,0.351-0.198,0.856-0.198,1.518v3.767h-1.233V35.829z M49.496,34.934c-0.456,0.388-0.895,0.661-1.315,0.819c-0.421,0.16-0.874,0.24-1.357,0.24c-0.797,0-1.411-0.195-1.839-0.584c-0.428-0.392-0.643-0.889-0.643-1.494c0-0.355,0.081-0.68,0.242-0.976c0.162-0.293,0.374-0.528,0.637-0.707c0.262-0.178,0.557-0.313,0.885-0.403c0.242-0.063,0.605-0.125,1.094-0.185c0.994-0.118,1.726-0.26,2.194-0.424c0.004-0.169,0.007-0.274,0.007-0.321c0-0.501-0.116-0.854-0.349-1.06c-0.314-0.277-0.781-0.416-1.401-0.416c-0.579,0-1.006,0.102-1.282,0.304c-0.275,0.203-0.479,0.563-0.611,1.077l-1.203-0.164c0.108-0.516,0.29-0.932,0.54-1.247c0.25-0.317,0.612-0.562,1.087-0.731c0.474-0.17,1.022-0.256,1.646-0.256c0.62,0,1.124,0.072,1.512,0.219c0.387,0.146,0.672,0.328,0.854,0.551c0.182,0.221,0.31,0.5,0.383,0.837c0.041,0.21,0.063,0.588,0.063,1.135v1.641c0,1.145,0.025,1.867,0.079,2.172c0.052,0.303,0.155,0.593,0.311,0.871h-1.285C49.615,35.575,49.533,35.276,49.496,34.934z M49.394,32.186c-0.447,0.183-1.117,0.337-2.01,0.466c-0.506,0.072-0.863,0.154-1.073,0.245s-0.372,0.226-0.485,0.399c-0.114,0.176-0.171,0.371-0.171,0.585c0,0.327,0.124,0.602,0.373,0.819c0.249,0.219,0.612,0.328,1.09,0.328c0.475,0,0.896-0.104,1.266-0.312c0.368-0.207,0.64-0.49,0.813-0.851c0.132-0.279,0.198-0.688,0.198-1.23V32.186z M47.001,27.666l0.909-1.914h1.613l-1.504,1.914H47.001z M52.403,33.661l1.217-0.19c0.068,0.487,0.26,0.86,0.571,1.121c0.312,0.26,0.749,0.39,1.309,0.39c0.565,0,0.984-0.115,1.259-0.346c0.272-0.229,0.409-0.5,0.409-0.811c0-0.277-0.12-0.496-0.361-0.656c-0.168-0.108-0.588-0.248-1.258-0.416c-0.902-0.229-1.528-0.426-1.876-0.592c-0.35-0.166-0.613-0.396-0.793-0.689c-0.181-0.295-0.271-0.619-0.271-0.975c0-0.323,0.074-0.624,0.222-0.898c0.148-0.276,0.351-0.505,0.605-0.688c0.19-0.142,0.452-0.261,0.783-0.358c0.331-0.099,0.685-0.146,1.063-0.146c0.57,0,1.07,0.082,1.5,0.246c0.43,0.163,0.749,0.387,0.954,0.666c0.205,0.28,0.346,0.654,0.424,1.124l-1.203,0.164c-0.055-0.374-0.213-0.665-0.475-0.875s-0.632-0.313-1.111-0.313c-0.564,0-0.968,0.094-1.21,0.279c-0.242,0.187-0.361,0.405-0.361,0.656c0,0.159,0.05,0.304,0.149,0.431c0.101,0.133,0.257,0.242,0.473,0.328c0.122,0.047,0.484,0.15,1.087,0.314c0.871,0.232,1.478,0.423,1.821,0.57c0.345,0.147,0.614,0.363,0.811,0.646c0.195,0.282,0.294,0.634,0.294,1.054c0,0.409-0.12,0.797-0.359,1.157c-0.239,0.363-0.584,0.644-1.036,0.843c-0.453,0.197-0.963,0.297-1.532,0.297c-0.943,0-1.662-0.195-2.157-0.588C52.854,35.014,52.539,34.433,52.403,33.661z M60.901,33.341l-0.376-5.312v-2.223h1.524v2.223l-0.355,5.312H60.901z M60.579,35.829v-1.401h1.415v1.401H60.579z M21.451,27.75v-3.532h-3.507v-1.477h3.507v-3.507h1.494v3.507h3.507v1.477h-3.507v3.532H21.451z"/></svg>