<svg width="100" height="45" viewBox="0 0 100 45" xmlns="http://www.w3.org/2000/svg"><path fill="#525252" d="M12.668,22.377c0,1.273,0.5,2.308,1.499,3.103c1,0.796,2.82,1.194,4.477,1.194c0.095,0,0.188-0.003,0.28-0.005c0.072-0.003,0.143-0.006,0.214-0.009c0.016-0.001,0.031-0.001,0.046-0.004c0.528-0.028,1.018-0.104,1.473-0.219c1.311-0.331,2.724-0.822,3.499-1.466c0.424-0.337,0.631-0.566,0.889-0.537c0.17,0.019,0.348,0.066,0.445,0.405l0.09,0.314c0.202,0.683,0.479,1.332,0.833,1.946c0.268,0.403,0.23,0.698-0.138,0.979c-0.001,0.001-0.002,0.002-0.003,0.004c-0.005,0.004-0.012,0.007-0.016,0.011c-0.007,0.006-0.013,0.01-0.021,0.016h-0.001c-1.913,1.412-4.77,2.118-7.59,2.118c-3.039,0-6.042-0.818-8.027-2.459c-1.711-1.406-2.566-3.202-2.566-5.39v-0.003c0-2.186,0.855-3.981,2.566-5.39c1.984-1.64,4.988-2.459,8.027-2.459c2.82,0,5.678,0.708,7.59,2.119h0.001c0.007,0.006,0.014,0.01,0.021,0.016c0.004,0.005,0.01,0.008,0.016,0.012c0.001,0,0.001,0.001,0.003,0.002c0.368,0.282,0.406,0.577,0.138,0.979c-0.354,0.614-0.631,1.265-0.833,1.946l-0.09,0.315c-0.097,0.339-0.275,0.386-0.445,0.405c-0.258,0.028-0.465-0.2-0.889-0.538c-0.775-0.645-2.188-1.134-3.499-1.466c-0.455-0.115-0.945-0.19-1.473-0.22c-0.015-0.001-0.03-0.001-0.046-0.002c-0.071-0.005-0.142-0.008-0.214-0.01c-0.092-0.003-0.185-0.004-0.28-0.004c-1.657,0-3.478,0.397-4.477,1.193C13.168,20.07,12.668,21.105,12.668,22.377z M91.95,25.773c0,1.254-0.5,2.271-1.496,3.048c-1.039,0.805-2.412,1.207-4.117,1.207H73.295c0,0-0.496-0.005-0.496-0.588V15.808c0,0-0.09-0.588,0.496-0.588h12.629c1.764,0,3.178,0.587,4.242,1.758c0.67,0.737,1.004,1.576,1.004,2.516c0,1.188-0.506,2.136-1.516,2.845C91.186,23.184,91.95,24.328,91.95,25.773z M77.157,20.986h7.914c0.055-0.002,0.098-0.001,0.121-0.001c0.01,0.001,0.018,0.001,0.018,0.001c0.365,0,0.676-0.127,0.934-0.385c0.258-0.256,0.387-0.573,0.387-0.952s-0.135-0.688-0.404-0.927s-0.617-0.406-1.045-0.406h-7.924V20.986z M87.364,25.426c0-0.484-0.176-0.871-0.531-1.163s-0.836-0.489-1.445-0.489h-8.23v3.148h8.176C86.686,26.922,87.364,26.393,87.364,25.426z M55.028,15.234H51.78c-0.57,0-0.57,0.589-0.57,0.589v9.229c0,1.596,0.773,2.893,2.322,3.888c1.594,1.02,4.574,1.53,7.209,1.533c2.633-0.003,5.617-0.514,7.211-1.533c1.547-0.995,2.32-2.292,2.32-3.888v-9.229c0,0,0-0.589-0.57-0.589h-3.248c0,0-0.545,0.026-0.545,0.589v8.04c0,2.435-3.057,3.055-5.168,3.055s-5.168-0.62-5.168-3.055v-8.04C55.573,15.261,55.028,15.234,55.028,15.234z M30.356,27.807c-1.698-1.405-2.546-3.216-2.546-5.43c0-2.187,0.855-3.982,2.567-5.39c1.985-1.64,4.987-2.459,8.026-2.459c3.04,0,6.042,0.819,8.027,2.459c1.711,1.407,2.566,3.203,2.566,5.39c0,2.214-0.855,4.024-2.566,5.43c-1.971,1.627-4.981,2.44-8.047,2.44C35.316,30.247,32.313,29.434,30.356,27.807z M32.427,22.378c0,1.297,0.493,2.339,1.481,3.129c0.987,0.789,2.807,1.184,4.477,1.184c1.681,0,3.51-0.395,4.503-1.184c0.994-0.79,1.49-1.832,1.49-3.129c0-1.272-0.499-2.306-1.5-3.102c-0.999-0.795-2.819-1.192-4.477-1.192c-1.657,0-3.478,0.397-4.477,1.192C32.926,20.072,32.427,21.105,32.427,22.378z"/></svg>