<svg width="100" height="45" viewBox="0 0 100 45" xmlns="http://www.w3.org/2000/svg"><path fill="#232323" d="M20.597,29.916h-1.836l3.48-14.847h1.817l-3.459,14.847H20.597z M29.137,29.916h-6.132l3.505-14.847h1.836 l-3.117,13.186h4.292L29.137,29.916z M33.944,24.175l-1.325,5.741h-1.859l1.345-5.784l-1.024-9.063h1.859l0.534,7.234l3.993-7.234 h2.072L33.944,24.175z M75.063,16.729h-2.69l-2.908,13.187h-1.858l2.908-13.187h-2.948l0.406-1.66h7.498L75.063,16.729z M75.002,29.916h-1.646l3.292-14.847h1.814l-3.27,14.847H75.002z M87,19.247l-1.623,7.285c-0.221,1.031-0.527,1.768-0.928,2.294 c-0.607,0.821-1.604,1.223-2.951,1.223c-2.223,0-3.494-0.97-3.52-2.632c-0.008-0.484,0.051-0.926,0.229-1.727l1.623-7.285 c0.541-2.463,1.807-3.58,4.006-3.58c2.201,0,3.349,1.01,3.373,2.693c0.008,0.484-0.051,0.99-0.211,1.727H87V19.247L87,19.247z M83.754,16.384c-0.641,0-1.129,0.211-1.463,0.631c-0.273,0.338-0.416,0.778-0.617,1.641l-1.625,7.326 c-0.1,0.442-0.156,0.863-0.152,1.181c0.014,0.885,0.598,1.368,1.6,1.368c1.069,0,1.639-0.61,1.979-2.127l1.645-7.241 c0.159-0.718,0.221-1.054,0.215-1.392c-0.014-0.906-0.576-1.391-1.582-1.391h0.002V16.384z M40.962,15.085h3.077l0.846,8.514 c0.152,1.641,0.237,2.965,0.348,4.758h0.044c0.714-1.771,1.323-3.112,2.123-4.758l4.201-8.514h3.12l-1.667,14.826h-2.037 l1.063-8.854c0.195-1.601,0.412-2.967,0.674-4.606l-0.045-0.022c-0.736,1.6-1.388,3.008-2.188,4.631l-4.29,8.853h-2.623 l-0.823-8.853c-0.152-1.602-0.261-3.031-0.369-4.607h-0.042c-0.367,1.576-0.715,2.986-1.171,4.607l-2.384,8.853h-2.058 L40.962,15.085z M66.893,22.491c-1.102,5.693-3.495,7.689-7.271,7.689c-2.979,0-4.619-1.273-4.619-4.547 c0-0.979,0.106-1.936,0.347-3.123c1.144-5.693,3.497-7.691,7.295-7.691c2.955,0,4.618,1.275,4.618,4.549 c0,0.979-0.129,1.936-0.366,3.123H66.893L66.893,22.491z M62.402,16.396c-2.46,0-4.121,1.594-5.027,6.16 c-0.236,1.061-0.365,2.104-0.365,2.954c0,2.208,0.947,3.101,2.826,3.101c2.48,0,4.119-1.594,5.05-6.159 c0.216-1.062,0.366-2.104,0.366-2.955C65.252,17.306,64.304,16.396,62.402,16.396z M6.521,15.063c-0.352,0-3.429,0.051-3.429,0.051 L0,29.94h1.458v-0.002c0.83-0.008,1.138,0.008,1.95,0.008c3.792,0,6.192-1.699,7.296-7.375h0.002 c0.238-1.187,0.369-2.139,0.369-3.112C11.075,16.194,9.49,15.063,6.521,15.063z M8.853,22.565c-0.933,4.551-2.427,5.59-4.918,5.604 c-0.871,0.004-1.068-0.004-1.728-0.014l2.366-11.439v0.004c0.741-0.017,0.917-0.023,1.597-0.017 c1.908,0.017,3.052,0.737,3.052,2.919c0,0.85-0.15,1.887-0.367,2.943H8.853z M98.14,15.063l-2.938,13.301l-2.183-13.301h-3.071 l-3.34,14.857h1.932l2.937-13.527l2.165,13.527h3.04L100,15.063H98.14L98.14,15.063z M15.919,15.073L9.811,29.921h1.963l1.112-2.775 l0.705-1.724l0.249-0.666H15.9l-0.066,0.666l-0.15,1.728l-0.213,2.773h1.859l1.152-14.85H15.919L15.919,15.073L15.919,15.073z M14.493,23.01l2.367-6.589l-0.779,6.589h-1.585H14.493z"/></svg>