<svg width="100" height="45" viewBox="0 0 100 45" xmlns="http://www.w3.org/2000/svg"><path fill="#000000" d="M14.997,16.981c-0.979,0-1.261,0.432-1.261,1.389v1.587h2.607l-0.263,2.563h-2.345v7.772h-3.128v-7.772H8.499v-2.563h2.108v-1.543c0-2.584,1.042-3.949,3.949-3.949c0.61,0,1.217,0.033,1.823,0.107v2.411L14.997,16.981z M16.559,24.799c0-2.889,1.368-5.063,4.234-5.063c1.563,0,2.521,0.805,2.977,1.802v-1.579h2.995v10.336H23.77v-1.567c-0.433,1.007-1.413,1.782-2.977,1.782c-2.866,0-4.234-2.168-4.234-5.061V24.799L16.559,24.799z M19.687,25.494c0,1.539,0.563,2.563,2.02,2.563c1.283,0,1.935-0.936,1.935-2.414v-1.034c0-1.476-0.651-2.41-1.935-2.41c-1.457,0-2.02,1.021-2.02,2.563V25.494z M33.279,19.738c1.217,0,2.367,0.262,2.996,0.695l-0.692,2.216c-0.653-0.31-1.364-0.475-2.085-0.479c-1.693,0-2.43,0.978-2.43,2.649v0.609c0,1.672,0.736,2.651,2.43,2.651c0.721-0.008,1.432-0.17,2.085-0.48l0.692,2.213c-0.629,0.436-1.779,0.693-2.996,0.693c-3.671,0-5.343-1.971-5.343-5.144v-0.478C27.938,21.714,29.608,19.738,33.279,19.738z M36.689,25.52v-0.911c0-2.933,1.672-4.859,5.081-4.859c3.214,0,4.627,1.953,4.627,4.821v1.654h-6.582c0.065,1.408,0.695,2.033,2.43,2.033c1.176,0,2.411-0.24,3.324-0.625l0.571,2.145c-0.824,0.428-2.518,0.758-4.016,0.758C38.167,30.533,36.689,28.563,36.689,25.52z M39.815,24.172h3.778v-0.258c0-1.129-0.454-2.026-1.82-2.026c-1.412,0-1.958,0.892-1.958,2.282V24.172z M57.992,25.453c0,2.887-1.392,5.063-4.255,5.063c-1.563,0-2.651-0.777-3.084-1.783v1.563H47.7V14.766l3.128-0.284v6.907c0.455-0.91,1.455-1.649,2.909-1.649c2.863,0,4.255,2.171,4.255,5.063V25.453z M54.862,24.734c0-1.458-0.563-2.541-2.063-2.541c-1.281,0-1.975,0.911-1.975,2.391v1.082c0,1.479,0.692,2.391,1.975,2.391c1.502,0,2.063-1.087,2.063-2.541V24.734z M59.043,25.387v-0.521c0-2.978,1.69-5.126,5.143-5.126s5.146,2.148,5.146,5.126v0.521c0,2.973-1.694,5.121-5.146,5.121S59.043,28.358,59.043,25.387z M66.207,24.646c0-1.37-0.567-2.453-2.027-2.453c-1.459,0-2.018,1.083-2.018,2.453v0.957c0,1.365,0.559,2.452,2.018,2.452c1.453,0,2.027-1.087,2.027-2.452V24.646z M70.373,25.387v-0.521c0-2.978,1.692-5.126,5.149-5.126c3.451,0,5.146,2.148,5.146,5.126v0.521c0,2.973-1.693,5.121-5.146,5.121C72.065,30.508,70.373,28.358,70.373,25.387z M77.539,24.646c0-1.37-0.563-2.453-2.017-2.453c-1.46,0-2.021,1.083-2.021,2.453v0.957c0,1.365,0.562,2.452,2.021,2.452c1.453,0,2.017-1.087,2.017-2.452V24.646z M84.967,24.888l3.084-4.93h3.322l-3.233,5.104l3.362,5.231h-3.318l-3.217-5.063v5.063h-3.123V14.766l3.123-0.284V24.888z"/></svg>