<svg width="100" height="45" viewBox="0 0 100 45" xmlns="http://www.w3.org/2000/svg"><path fill="#000000" d="M46.72,19.462c-1.583,0-2.671,0.805-3.165,1.795v-7.515l-3.404,0.309v16.892h3.214v-1.698c0.471,1.095,1.655,1.938,3.355,1.938c3.115,0,4.629-2.364,4.629-5.506v-0.707C51.349,21.823,49.833,19.462,46.72,19.462z M47.942,25.746c0,1.582-0.612,2.765-2.245,2.765c-1.395,0-2.148-0.989-2.148-2.601v-1.178c0-1.608,0.753-2.6,2.148-2.6c1.633,0,2.245,1.178,2.245,2.765V25.746z M58.085,19.462c-3.754,0-5.594,2.337-5.594,5.576v0.567c0,3.233,1.84,5.572,5.594,5.572c3.755,0,5.598-2.339,5.598-5.572v-0.567C63.683,21.799,61.84,19.462,58.085,19.462z M60.285,25.843c0,1.485-0.626,2.668-2.206,2.668c-1.588,0-2.194-1.183-2.194-2.668v-1.04c0-1.491,0.606-2.669,2.194-2.669s2.206,1.178,2.206,2.669V25.843z M70.419,19.462c-3.761,0-5.603,2.337-5.603,5.576v0.567c0,3.233,1.842,5.572,5.603,5.572c3.755,0,5.598-2.339,5.598-5.572v-0.567C76.017,21.799,74.174,19.462,70.419,19.462z M72.612,25.843c0,1.485-0.612,2.668-2.193,2.668c-1.588,0-2.199-1.183-2.199-2.668v-1.04c0-1.491,0.611-2.669,2.199-2.669c1.581,0,2.193,1.178,2.193,2.669V25.843z M87.802,30.943h-3.61l-3.499-5.507v5.507h-3.396V14.051l3.396-0.309v11.32l3.356-5.362h3.613l-3.52,5.551L87.802,30.943z M19.271,24.833c0.001-0.303,0.235-0.554,0.544-0.584c0.074-0.008,0.148-0.01,0.223-0.01l0.334,0.002c0.92-0.012,1.516-0.612,1.517-1.531c0.002-1.499,0.001-2.998,0.001-4.497l-0.001-1.894c0-0.063-0.001-0.127,0.001-0.19c0.019-0.371,0.264-0.629,0.6-0.629c0.338,0.001,0.586,0.266,0.591,0.627c0.007,0.784,0.006,1.568,0.004,2.351l-0.001,1.071l0.001,0.782c0,0.782,0.001,1.565-0.001,2.35c-0.004,1.615-1.141,2.749-2.762,2.755l-0.266,0.002c-0.084,0-0.167-0.002-0.25-0.011C19.5,25.393,19.269,25.138,19.271,24.833z M27.277,28.271c-0.002,0-0.004,0-0.006,0c-0.233,0-0.387,0.111-0.604,0.317c-1.321,1.253-2.928,1.919-4.778,1.98c-2.099,0.061-3.931-0.623-5.42-2.063c-0.165-0.16-0.316-0.234-0.475-0.234c-0.035,0-0.07,0.004-0.106,0.011c-0.247,0.044-0.399,0.175-0.467,0.4c-0.075,0.246-0.015,0.452,0.191,0.652c1.599,1.561,3.583,2.383,5.898,2.445c1.1-0.02,2.031-0.172,2.929-0.481c1.229-0.421,2.306-1.092,3.203-1.993c0.191-0.191,0.241-0.405,0.15-0.651C27.709,28.421,27.542,28.296,27.277,28.271z M29.184,20.47c-0.451,0-0.816-0.365-0.816-0.815v-3.337c0-0.451,0.365-0.816,0.816-0.816c0.45,0,0.816,0.365,0.816,0.816v3.337C30,20.104,29.633,20.47,29.184,20.47z M13.999,20.47c-0.451,0-0.816-0.365-0.816-0.815v-3.337c0-0.451,0.365-0.816,0.816-0.816c0.45,0,0.815,0.365,0.815,0.816v3.337C14.813,20.104,14.449,20.47,13.999,20.47z"/></svg>