<svg width="100" height="45" viewBox="0 0 100 45" xmlns="http://www.w3.org/2000/svg"><path fill="#001122" d="M70.252,22.009l4.514-7.517h-4.608l-2.399,3.812l-2.585-3.812h-5.045l5.324,7.509l-5.324,8.47h5.045l2.88-4.816l3.415,4.816h4.507L70.252,22.009z M53.561,14.492l-3.426,8.55l-3.249-8.55h-4.095l-2.718,16h4.138l1.336-9.221h0.043l3.667,9.221h1.656l3.839-9.221h0.051l1.166,9.221h4.158l-2.422-16H53.561z M32.473,21.568v3.252h3.387c-0.178,1.824-1.558,2.76-3.346,2.76c-2.718,0-4.187-2.502-4.187-4.974c0-2.473,1.409-5.018,4.125-5.018c1.667,0,2.86,1.008,3.433,2.52l3.921-1.644c-1.369-2.964-3.901-4.433-7.168-4.433c-5.12,0-8.613,3.387-8.613,8.55c0,4.999,3.473,8.388,8.469,8.388c2.654,0,4.997-0.947,6.547-3.115c1.393-1.965,1.583-3.965,1.626-6.285L32.473,21.568L32.473,21.568z"/></svg>