<svg width="100" height="45" viewBox="0 0 100 45" xmlns="http://www.w3.org/2000/svg"><path fill="#000000" d="M33.671,11.299c-1.348,0.063-2.268,0.279-3.072,0.595c-0.833,0.325-1.539,0.76-2.24,1.465c-0.703,0.704-1.135,1.411-1.458,2.245c-0.312,0.807-0.523,1.727-0.583,3.075c-0.06,1.35-0.073,1.782-0.066,5.222c0.006,3.438,0.021,3.869,0.087,5.222c0.064,1.348,0.279,2.27,0.595,3.073c0.325,0.831,0.76,1.538,1.465,2.241c0.705,0.701,1.411,1.132,2.247,1.456c0.806,0.313,1.727,0.522,3.076,0.581c1.348,0.061,1.782,0.075,5.221,0.067c3.438-0.008,3.872-0.021,5.223-0.085c1.351-0.065,2.267-0.282,3.071-0.596c0.832-0.326,1.541-0.76,2.242-1.466c0.702-0.706,1.132-1.413,1.455-2.247c0.313-0.805,0.525-1.726,0.583-3.074c0.06-1.353,0.073-1.784,0.066-5.223c-0.009-3.438-0.023-3.871-0.087-5.221c-0.064-1.35-0.278-2.269-0.597-3.073c-0.324-0.832-0.758-1.538-1.461-2.241c-0.706-0.703-1.414-1.135-2.248-1.456c-0.806-0.312-1.726-0.525-3.074-0.583c-1.348-0.057-1.783-0.073-5.223-0.066C35.453,11.218,35.022,11.232,33.671,11.299 M33.82,34.195c-1.235-0.052-1.906-0.259-2.353-0.43c-0.592-0.229-1.013-0.505-1.458-0.946c-0.445-0.438-0.719-0.862-0.95-1.453c-0.173-0.445-0.381-1.115-0.44-2.351c-0.063-1.336-0.076-1.736-0.083-5.119c-0.008-3.381,0.005-3.78,0.064-5.117c0.053-1.233,0.259-1.905,0.431-2.352c0.228-0.592,0.502-1.013,0.944-1.458c0.443-0.445,0.864-0.72,1.455-0.951c0.446-0.174,1.117-0.381,2.351-0.439c1.336-0.064,1.736-0.077,5.117-0.084c3.383-0.007,3.783,0.005,5.12,0.064c1.233,0.055,1.903,0.259,2.349,0.431c0.592,0.228,1.015,0.501,1.46,0.944c0.445,0.443,0.717,0.864,0.95,1.456c0.174,0.445,0.381,1.115,0.44,2.35c0.063,1.336,0.077,1.736,0.083,5.115c0.007,3.382-0.003,3.782-0.063,5.118c-0.056,1.234-0.26,1.905-0.432,2.354c-0.227,0.591-0.502,1.013-0.944,1.456c-0.443,0.444-0.865,0.721-1.456,0.951c-0.447,0.176-1.117,0.382-2.351,0.44c-1.336,0.062-1.736,0.075-5.118,0.083C35.555,34.267,35.156,34.254,33.82,34.195 M44.146,17.106c0.001,0.84,0.683,1.519,1.523,1.518s1.519-0.683,1.517-1.521c-0.002-0.84-0.683-1.52-1.523-1.518l0,0C44.824,15.585,44.144,16.268,44.146,17.106 M32.414,23.89c0.008,3.593,2.925,6.496,6.516,6.49c3.59-0.006,6.499-2.924,6.491-6.517c-0.006-3.592-2.924-6.497-6.516-6.49C35.313,17.38,32.407,20.298,32.414,23.89 M34.696,23.886c-0.005-2.333,1.882-4.228,4.213-4.232c2.332-0.004,4.228,1.883,4.23,4.214c0.006,2.331-1.88,4.227-4.212,4.229C36.595,28.104,34.7,26.218,34.696,23.886L34.696,23.886 M61.751,32.063c-0.347,0-0.69-0.089-1-0.268c-0.619-0.357-1-1.019-1-1.732V18.289c0-0.714,0.381-1.375,1-1.732s1.381-0.357,2,0l10.201,5.889c0.618,0.357,1,1.017,1,1.732s-0.383,1.375-1,1.732l-10.201,5.887C62.44,31.976,62.096,32.063,61.751,32.063z"/></svg>