<svg width="100" height="45" viewBox="0 0 100 45" xmlns="http://www.w3.org/2000/svg"><path fill="#000000" d="M67.898,32.064c-0.346,0-0.69-0.09-1-0.269c-0.619-0.356-1-1.017-1-1.731V18.289c0-0.714,0.381-1.375,1-1.732c0.619-0.357,1.381-0.357,2,0l10.203,5.891c0.619,0.357,1,1.018,1,1.732c0,0.715-0.382,1.375-1.001,1.732l-10.203,5.885C68.589,31.976,68.243,32.064,67.898,32.064z"/><path fill="#383838" d="M18.372,29.568v-13.69h1.747v13.69H18.372z M23.167,29.568V19.65h1.461v1.401c0.351-0.544,0.781-0.952,1.289-1.221c0.508-0.27,1.091-0.404,1.75-0.404c0.512,0,0.985,0.086,1.42,0.257s0.786,0.396,1.053,0.672c0.267,0.277,0.466,0.637,0.598,1.079c0.131,0.442,0.197,1.121,0.197,2.037v6.1H29.32v-6.041c0-0.729-0.073-1.262-0.22-1.598s-0.375-0.597-0.687-0.781c-0.311-0.184-0.672-0.275-1.082-0.275c-0.776,0-1.396,0.246-1.856,0.738c-0.462,0.493-0.692,1.337-0.692,2.536v5.422h-1.616V29.568z M33.026,26.6l1.615-0.263c0.095,0.7,0.354,1.222,0.778,1.563c0.424,0.341,0.987,0.512,1.688,0.512c0.702,0,1.244-0.146,1.628-0.443c0.383-0.296,0.575-0.672,0.575-1.125c0-0.393-0.165-0.695-0.494-0.914c-0.228-0.15-0.777-0.338-1.648-0.563c-1.26-0.33-2.102-0.609-2.526-0.84c-0.425-0.23-0.755-0.539-0.989-0.926c-0.234-0.387-0.352-0.826-0.352-1.316c0-0.846,0.319-1.534,0.956-2.063c0.637-0.529,1.52-0.794,2.647-0.794c0.71,0,1.335,0.109,1.874,0.327c0.538,0.218,0.95,0.51,1.236,0.877c0.285,0.368,0.483,0.893,0.592,1.578l-1.582,0.224c-0.146-1.083-0.838-1.624-2.076-1.624c-0.703,0-1.227,0.119-1.571,0.358c-0.344,0.239-0.516,0.543-0.516,0.916c0,0.366,0.165,0.654,0.495,0.865c0.198,0.125,0.785,0.322,1.761,0.595c1.342,0.36,2.21,0.649,2.604,0.865c0.394,0.215,0.7,0.509,0.919,0.879c0.219,0.371,0.329,0.813,0.329,1.323c0,0.949-0.354,1.716-1.061,2.302c-0.707,0.587-1.672,0.88-2.895,0.88C34.722,29.792,33.393,28.729,33.026,26.6z M46.709,28.064l0.22,1.482c-0.447,0.102-0.85,0.15-1.208,0.15c-0.564,0-1.019-0.096-1.362-0.285c-0.345-0.188-0.581-0.45-0.709-0.779c-0.128-0.328-0.192-0.986-0.192-1.971v-5.705H42.27V19.65h1.187v-2.456l1.615-1.008v3.464h1.637v1.308h-1.637v5.799c0,0.536,0.047,0.884,0.143,1.036c0.139,0.227,0.399,0.337,0.78,0.337C46.179,28.13,46.417,28.107,46.709,28.064z M54.689,28.346c-0.541,0.479-1.105,0.842-1.69,1.084c-0.586,0.24-1.192,0.362-1.824,0.362c-0.995,0-1.791-0.255-2.383-0.767c-0.594-0.51-0.89-1.197-0.89-2.063c0-0.572,0.139-1.08,0.417-1.521c0.278-0.441,0.659-0.787,1.143-1.035c0.483-0.25,1.216-0.434,2.197-0.551c1.317-0.166,2.284-0.361,2.899-0.59l0.012-0.431c0-0.679-0.145-1.155-0.43-1.429c-0.402-0.398-1.021-0.598-1.855-0.598c-0.754,0-1.318,0.133-1.691,0.399c-0.373,0.266-0.648,0.765-0.823,1.497l-1.593-0.224c0.227-1.064,0.688-1.84,1.378-2.325c0.692-0.485,1.682-0.729,2.971-0.729c1.004,0,1.791,0.161,2.363,0.481c0.568,0.321,0.932,0.718,1.082,1.191c0.147,0.473,0.225,1.164,0.225,2.073v2.241c0,1.568,0.035,2.559,0.104,2.965c0.069,0.408,0.207,0.807,0.412,1.191H55.02C54.854,29.227,54.741,28.818,54.689,28.346z M54.561,24.59c-0.596,0.25-1.478,0.461-2.647,0.637c-0.683,0.101-1.158,0.215-1.429,0.342s-0.481,0.309-0.631,0.541s-0.225,0.504-0.225,0.809c0,0.475,0.172,0.854,0.516,1.137c0.344,0.281,0.819,0.424,1.428,0.424c0.578,0,1.104-0.127,1.576-0.385c0.473-0.254,0.826-0.596,1.061-1.021s0.354-1.047,0.354-1.862L54.561,24.59L54.561,24.59z"/></svg>