<svg width="100" height="45" viewBox="0 0 100 45" xmlns="http://www.w3.org/2000/svg"><path fill="#8D8D8D" d="M83.998,16.143c-1.026,0-1.851,0.822-1.851,1.836c0,1.015,0.823,1.836,1.851,1.836c1.014,0,1.836-0.821,1.836-1.836C85.834,16.965,85.012,16.143,83.998,16.143z"/><path fill="#222222" d="M54.243,19.574c-2.736,0-4.952,2.477-4.952,5.521c0,3.053,2.216,5.534,4.952,5.534c1.723,0,2.95-0.627,3.838-1.614c0.431-0.487,0.342-1.229-0.179-1.59c-0.431-0.298-0.969-0.196-1.367,0.133c-0.381,0.33-1.114,0.988-2.292,0.988c-1.381,0-2.559-1.196-2.824-2.769h6.333v0.032c0.897,0,1.418-0.679,1.38-1.337c-0.013-0.342-0.05-0.569-0.082-0.746C58.492,21.335,56.548,19.574,54.243,19.574z M51.507,23.969c0.399-1.349,1.476-2.304,2.723-2.304s2.318,0.975,2.724,2.304H51.507z M49.392,20.664c0,0.53-0.417,0.986-0.937,1.024c-0.063,0-0.14,0-0.203,0c-2.014-0.228-3.47,1.367-3.47,3.307v4.382c0,0.607-0.5,1.077-1.108,1.045c-0.551-0.031-0.97-0.525-0.97-1.076v-8.492c0-0.568,0.469-1.039,1.039-1.039c0.52,0,1.039,0.394,1.039,1.039v0.14c0.816-1.025,2.235-1.576,3.749-1.354C49.012,19.727,49.392,20.145,49.392,20.664z M85.036,21.771c0,0.059,0,7.302,0,7.605c0,0.577-0.47,1.045-1.038,1.045c-0.583,0-1.052-0.468-1.052-1.045c0-0.329,0-7.573,0-7.605c0-0.576,0.469-1.039,1.052-1.039C84.566,20.731,85.036,21.194,85.036,21.771z M68.529,14.977c-0.569,0-1.038,0.469-1.038,1.039v4.629c-0.71-0.709-1.598-1.058-2.653-1.058c-2.742,0-4.958,2.481-4.958,5.534c0,3.047,2.216,5.521,4.958,5.521c1.057,0,1.956-0.36,2.666-1.076c0.089,0.494,0.52,0.854,1.025,0.854c0.572,0,1.041-0.468,1.041-1.045v-13.36C69.57,15.444,69.103,14.977,68.529,14.977z M64.855,28.579c-1.596,0-2.875-1.539-2.875-3.458c0-1.912,1.279-3.471,2.875-3.471c1.598,0,2.876,1.545,2.876,3.471C67.731,27.04,66.428,28.579,64.855,28.579z M79.388,14.977c-0.583,0-1.052,0.469-1.052,1.039v4.629c-0.709-0.709-1.583-1.058-2.647-1.058c-2.734,0-4.951,2.481-4.951,5.534c0,3.047,2.217,5.521,4.951,5.521c1.064,0,1.964-0.36,2.673-1.076c0.09,0.494,0.521,0.854,1.026,0.854c0.569,0,1.038-0.468,1.038-1.045v-13.36C80.426,15.444,79.957,14.977,79.388,14.977z M75.688,28.579c-1.596,0-2.875-1.539-2.875-3.458c0-1.912,1.279-3.471,2.875-3.471c1.598,0,2.876,1.545,2.876,3.471C78.563,27.04,77.285,28.579,75.688,28.579z M92.167,20.803c-0.025,0.501-0.455,0.862-0.949,0.862h-0.912v7.737c0,0.57-0.457,1.02-1.063,1.052c-0.57,0-1.039-0.47-1.039-1.038v-7.728h-0.888c-0.52,0-0.948-0.456-0.912-0.987c0.039-0.508,0.471-0.874,0.951-0.874h0.86v-1.508c0-0.606,0.507-1.076,1.115-1.037c0.557,0.037,0.976,0.52,0.976,1.075v1.456h0.949C91.773,19.813,92.204,20.265,92.167,20.803z"/><path fill="#8D8D8D" d="M22.352,7.973c-8.017,0-14.521,6.51-14.521,14.527s6.504,14.527,14.521,14.527c8.023,0,14.527-6.51,14.527-14.527S30.375,7.973,22.352,7.973z M30.799,24.438c0.032,0.216,0.051,0.438,0.051,0.646c0,3.272-3.8,5.908-8.479,5.908c-4.679,0-8.479-2.653-8.479-5.908c0-0.229,0.025-0.432,0.057-0.646c-0.728-0.329-1.248-1.051-1.248-1.925c0-1.152,0.938-2.108,2.115-2.108c0.57,0,1.089,0.222,1.469,0.589c1.476-1.058,3.508-1.734,5.756-1.806l1.077-5.06c0.019-0.103,0.07-0.189,0.158-0.24c0.063-0.051,0.171-0.076,0.273-0.051l3.521,0.741c0.241-0.5,0.766-0.85,1.349-0.85c0.836,0,1.507,0.677,1.507,1.507c0,0.829-0.671,1.514-1.507,1.514c-0.811,0-1.47-0.646-1.507-1.443l-3.154-0.671l-0.969,4.534c2.216,0.089,4.211,0.767,5.668,1.805c0.38-0.361,0.899-0.588,1.469-0.588c1.165,0,2.115,0.937,2.115,2.114C32.041,23.368,31.521,24.107,30.799,24.438z M19.027,25.514c-0.83,0.021-1.508-0.671-1.508-1.506c0-0.837,0.678-1.508,1.508-1.508c0.829,0,1.507,0.671,1.507,1.508C20.534,24.843,19.856,25.514,19.027,25.514z M25.961,27.458c0.139,0.159,0.139,0.399,0,0.552c-1.039,1.038-3.015,1.114-3.591,1.114c-0.589,0-2.564-0.088-3.59-1.114c-0.152-0.151-0.152-0.393,0-0.552c0.158-0.158,0.405-0.158,0.557,0c0.659,0.659,2.046,0.881,3.034,0.881c0.988,0,2.394-0.222,3.033-0.881C25.562,27.3,25.803,27.3,25.961,27.458z M27.19,24.025c0,0.816-0.671,1.509-1.507,1.509s-1.507-0.68-1.507-1.509c0-0.83,0.671-1.514,1.507-1.514S27.19,23.195,27.19,24.025z"/></svg>