<svg width="100" height="45" viewBox="0 0 100 45" xmlns="http://www.w3.org/2000/svg"><path fill="#001122" d="M28.689,28.22v-5.436c0-3.612,2.573-5.348,5.631-5.348h1.474v2.795l-1.301,0.013c-0.858,0-1.522,0.25-2.006,0.741c-0.478,0.484-0.713,1.231-0.713,2.228v5.016L28.689,28.22z M37.107,17.429h3.113v5.646c0,0.511,0.049,0.947,0.145,1.299c0.104,0.347,0.249,0.623,0.436,0.845c0.194,0.208,0.429,0.353,0.699,0.449c0.277,0.09,0.581,0.132,0.927,0.132c0.313,0.002,0.622-0.044,0.92-0.138c0.276-0.091,0.505-0.235,0.692-0.443c0.193-0.215,0.345-0.498,0.442-0.845c0.097-0.346,0.152-0.78,0.152-1.299v-5.639h3.113v5.742c0.021,0.855-0.118,1.707-0.408,2.509c-0.235,0.633-0.615,1.202-1.107,1.662c-0.489,0.432-1.068,0.748-1.694,0.927c-0.644,0.193-1.349,0.29-2.11,0.29s-1.474-0.097-2.117-0.29c-0.625-0.18-1.201-0.496-1.688-0.927c-0.495-0.46-0.876-1.029-1.113-1.662c-0.27-0.69-0.402-1.52-0.402-2.509V17.429z M56.181,22.424v5.811h3.127v-5.811c0.041-1.383,0.691-2.56,2.11-2.56c1.334,0,1.846,1.453,1.846,2.628v5.742h3.114v-5.458c0-3.376-1.695-5.693-4.863-5.693c-1.751,0-2.955,0.629-3.771,1.48c-0.989-1.004-2.359-1.542-3.77-1.48c-3.175,0-4.863,2.317-4.863,5.693v5.443h3.112v-5.741c0-1.176,0.514-2.628,1.849-2.628c1.425,0,2.067,1.176,2.109,2.56V22.424z M67.656,22.479c0,3.887,2.298,6.11,6.033,6.11c0.789,0.01,1.57-0.144,2.298-0.45c0.664-0.286,1.261-0.705,1.755-1.232c0.492-0.53,0.873-1.154,1.122-1.832c0.266-0.718,0.399-1.478,0.394-2.242c0.007-0.76-0.122-1.514-0.38-2.228c-0.24-0.676-0.611-1.296-1.093-1.826c-0.485-0.532-1.078-0.956-1.736-1.247c-0.73-0.312-1.518-0.465-2.31-0.449c-0.624,0-1.19,0.09-1.681,0.27c-0.465,0.165-0.901,0.398-1.296,0.691v-4.483h-3.106V22.479z M75.938,21.615c0.146,0.366,0.222,0.761,0.222,1.21c0,0.45-0.069,0.858-0.222,1.225c-0.137,0.352-0.34,0.674-0.601,0.947c-0.249,0.266-0.551,0.476-0.886,0.615c-0.692,0.285-1.467,0.285-2.158,0c-0.328-0.142-0.627-0.347-0.88-0.603c-0.256-0.275-0.458-0.597-0.595-0.945c-0.143-0.399-0.213-0.823-0.207-1.247c-0.007-0.791,0.281-1.556,0.811-2.145c0.25-0.257,0.552-0.459,0.885-0.595c0.342-0.148,0.713-0.222,1.087-0.221C74.527,19.844,75.547,20.548,75.938,21.615z M80.436,13.562h3.113v14.667h-3.113V13.562z M85.153,20.618c-0.284,0.707-0.427,1.46-0.423,2.221c-0.005,0.762,0.136,1.519,0.416,2.229c0.279,0.678,0.689,1.295,1.204,1.818c0.518,0.532,1.137,0.954,1.818,1.245c0.712,0.291,1.494,0.443,2.338,0.443c0.68,0.01,1.356-0.1,2.001-0.325c0.574-0.197,1.116-0.485,1.604-0.851c0.447-0.34,0.841-0.745,1.163-1.204c0.307-0.426,0.544-0.898,0.705-1.397h-3.354c-0.188,0.332-0.458,0.609-0.824,0.823c-0.658,0.369-1.444,0.43-2.152,0.167c-0.283-0.107-0.552-0.253-0.794-0.437c-0.507-0.414-0.871-0.98-1.038-1.613h8.432c0.046-0.298,0.072-0.598,0.078-0.898c0.005-0.763-0.141-1.521-0.429-2.227c-0.553-1.39-1.647-2.495-3.029-3.059c-0.746-0.311-1.548-0.467-2.353-0.456c-0.853,0-1.635,0.152-2.347,0.456c-0.686,0.286-1.31,0.705-1.833,1.231c-0.511,0.525-0.914,1.146-1.183,1.827V20.618z M88.89,20.154c0.472-0.35,1.05-0.53,1.639-0.511c0.629,0,1.154,0.172,1.578,0.525c0.415,0.339,0.725,0.783,0.919,1.329h-5.119c0.208-0.553,0.533-1.003,0.975-1.343H88.89z"/><path fill="#B5B5B5" d="M15.614,23.885c0.831-0.658,0.831-1.938,0-2.616c-1.182-0.981-2.478-1.815-3.86-2.484c-0.955-0.456-2.02,0.18-2.172,1.266c-0.235,1.66-0.277,3.335-0.125,4.927c0.103,1.099,1.155,1.757,2.124,1.335c1.447-0.625,2.803-1.438,4.033-2.422V23.885z M21.819,19.048c1.823,1.995,1.829,5.047,0.014,7.051c-3.126,3.449-7.212,5.89-11.732,7.006c-2.404,0.603-4.85-0.817-5.521-3.201c-1.363-4.656-1.163-9.921,0.152-14.598c0.691-2.457,3.003-3.999,5.382-3.432C14.521,12.926,18.657,15.63,21.819,19.048L21.819,19.048z"/></svg>