<svg width="100" height="45" viewBox="0 0 100 45" xmlns="http://www.w3.org/2000/svg"><path fill="#000000" d="M4,27.085l1.179-1.647c0.711,0.75,1.843,1.371,3.248,1.371c1.197,0,1.77-0.555,1.77-1.127c0-1.807-5.868-0.574-5.868-4.394c0-1.703,1.46-3.108,3.872-3.108c1.616,0,2.969,0.486,3.977,1.423L10.961,21.2c-0.835-0.763-1.927-1.112-2.969-1.112c-0.938,0-1.459,0.416-1.459,1.025c0,1.615,5.852,0.54,5.852,4.341c0,1.854-1.335,3.267-4.079,3.267C6.361,28.721,4.953,28.057,4,27.085z M20.422,28.525l-0.624-1.717h-4.357l-0.642,1.717h-2.485l3.941-10.188h2.726l3.925,10.188H20.422z M17.613,20.504L16.015,24.9h3.177L17.613,20.504z M23.862,28.525V18.337h4.773c2.225,0,3.421,1.491,3.421,3.28c0,1.77-1.214,3.283-3.421,3.283h-2.602v3.625H23.862z M29.835,21.617c0-0.851-0.642-1.372-1.496-1.372h-2.306v2.743h2.306C29.193,22.988,29.835,22.467,29.835,21.617z M32.889,23.439c0-3.075,2.24-5.277,5.316-5.277c3.09,0,5.33,2.203,5.33,5.277c0,3.072-2.24,5.281-5.33,5.281C35.147,28.721,32.889,26.514,32.889,23.439z M41.31,23.439c0-1.911-1.215-3.353-3.105-3.353c-1.875,0-3.093,1.441-3.093,3.353c0,1.895,1.218,3.351,3.093,3.351C40.095,26.79,41.31,25.334,41.31,23.439z M48.168,28.525l-4.166-10.188h1.007l3.699,9.22l3.715-9.22h1.007l-4.167,10.188H48.168z M55.203,17.483h-0.676l2.356-2.204h0.96L55.203,17.483z M54.925,28.525V18.337h0.868v10.188H54.925z M58.326,28.525V18.337h3.244c3.158,0,5.16,2.309,5.16,5.104c0,2.83-1.979,5.086-5.16,5.086h-3.244V28.525z M65.809,23.439c0-2.378-1.524-4.304-4.238-4.304h-2.375v8.595h2.375C64.266,27.73,65.809,25.818,65.809,23.439z M68.902,28.525V18.337h6.457v0.799h-5.59v3.766h5.487V23.7H69.77v4.03h5.59v0.795H68.902z M77.127,23.439c0-2.986,1.966-5.277,4.95-5.277c2.985,0,4.95,2.291,4.95,5.277c0,2.988-1.979,5.281-4.95,5.281C79.093,28.721,77.127,26.43,77.127,23.439z M86.105,23.439c0-2.604-1.6-4.479-4.028-4.479c-2.468,0-4.028,1.875-4.028,4.479c0,2.565,1.563,4.483,4.028,4.483C84.525,27.924,86.105,26.006,86.105,23.439z M88.62,27.085l0.579-0.655c0.656,0.758,1.719,1.471,3.171,1.471c2.104,0,2.694-1.157,2.694-2.026c0-2.987-6.107-1.442-6.107-5.004c0-1.664,1.488-2.726,3.348-2.726c1.524,0,2.658,0.539,3.454,1.441l-0.573,0.643c-0.729-0.885-1.766-1.285-2.912-1.285c-1.354,0-2.381,0.78-2.381,1.875C89.893,23.423,96,22,96,25.803c0,1.319-0.868,2.881-3.63,2.881C90.67,28.721,89.402,28.045,88.62,27.085z"/></svg>