<svg width="100" height="45" viewBox="0 0 100 45" xmlns="http://www.w3.org/2000/svg"><path fill="#000000" d="M83.93,29.938c-0.861,0-1.631-0.213-2.297-0.647c-0.676-0.427-1.195-1.056-1.565-1.89c-0.37-0.823-0.565-1.834-0.565-3.02 v-0.428c0-1.186,0.187-2.193,0.565-3.02c0.371-0.824,0.899-1.455,1.565-1.892c0.666-0.426,1.436-0.646,2.297-0.646 c0.806,0,1.49,0.156,2.064,0.463c0.574,0.313,1.039,0.729,1.391,1.27V14.85h2.158v14.838h-2.158v-1.481 c-0.352,0.537-0.815,0.965-1.391,1.271C85.42,29.781,84.735,29.938,83.93,29.938z M84.457,28.012c0.398,0,0.778-0.074,1.131-0.213 c0.361-0.141,0.722-0.391,1.093-0.742c0.241-0.213,0.426-0.463,0.546-0.75c0.13-0.287,0.195-0.658,0.195-1.111v-2.036 c0-0.437-0.065-0.808-0.195-1.104c-0.129-0.295-0.314-0.545-0.546-0.76c-0.371-0.369-0.731-0.619-1.093-0.75 c-0.362-0.131-0.741-0.203-1.131-0.203c-0.545,0-1.037,0.121-1.463,0.352c-0.426,0.232-0.76,0.621-1,1.158s-0.361,1.25-0.361,2.142 v0.379c0,0.892,0.121,1.604,0.361,2.142c0.241,0.536,0.574,0.926,1,1.157C83.42,27.891,83.902,28.012,84.457,28.012L84.457,28.012z M29.771,29.688V16.971h-4.899V14.85h12.06v2.121h-4.9v12.717H29.771z M38.636,29.688V14.85h2.14v5.428 c0.315-0.584,0.741-1.036,1.297-1.37c0.546-0.335,1.232-0.5,2.038-0.5c1.232,0,2.14,0.354,2.732,1.047 c0.592,0.692,0.889,1.61,0.889,2.739v7.484h-2.14v-7.316c0-0.647-0.176-1.157-0.537-1.526c-0.361-0.371-0.861-0.547-1.491-0.547 c-0.436,0-0.834,0.071-1.176,0.224c-0.343,0.145-0.648,0.379-0.899,0.686c-0.222,0.25-0.398,0.537-0.519,0.861 c-0.121,0.313-0.176,0.713-0.176,1.176v6.447L38.636,29.688L38.636,29.688z M56.865,18.656c-0.437-0.168-0.937-0.25-1.511-0.25 c-0.75,0-1.417,0.166-1.991,0.5c-0.582,0.334-1.01,0.807-1.297,1.408v-1.648h-2.159v11.021h2.158v-6.316 c0-0.52,0.056-0.953,0.177-1.277c0.119-0.334,0.305-0.631,0.564-0.898c0.24-0.27,0.527-0.479,0.871-0.647 c0.343-0.166,0.723-0.239,1.148-0.239c0.5,0,0.916,0.139,1.231,0.396L56.865,18.656L56.865,18.656z M63.654,27.641 c-0.463,0.277-1.047,0.418-1.751,0.418c-0.944,0-1.687-0.326-2.213-0.965c-0.51-0.619-0.778-1.49-0.797-2.594h7.864v-0.889 c0-0.945-0.176-1.814-0.52-2.594c-0.343-0.787-0.889-1.418-1.621-1.892c-0.731-0.474-1.666-0.713-2.797-0.713 c-0.973,0-1.844,0.239-2.604,0.729c-0.758,0.492-1.361,1.148-1.787,1.992c-0.436,0.842-0.648,1.787-0.648,2.834v0.426 c0,1.131,0.213,2.113,0.648,2.945c0.436,0.834,1.027,1.473,1.787,1.928c0.761,0.453,1.65,0.676,2.65,0.676 c1.186,0,2.176-0.25,2.981-0.739c0.796-0.49,1.38-1.194,1.75-2.104l-1.862-0.74C64.47,26.938,64.107,27.363,63.654,27.641 L63.654,27.641z M59.717,21.119c0.548-0.609,1.25-0.906,2.104-0.906c0.917,0,1.602,0.24,2.057,0.723 c0.453,0.48,0.703,1.131,0.759,1.955h-5.687C59.06,22.148,59.319,21.564,59.717,21.119z M78.502,29.688 c0-1.352-0.213-2.52-0.648-3.502c-0.25-0.563-0.583-1.055-0.991-1.473c0-0.102,0.009-0.203,0.009-0.307v-1.693 c0-1.361-0.379-2.418-1.129-3.168c-0.761-0.76-1.789-1.131-3.086-1.131c-1.158,0-2.103,0.25-2.843,0.76 c-0.713,0.49-1.194,1.104-1.437,1.814l1.826,0.725c0.166-0.482,0.453-0.854,0.853-1.104c0.397-0.25,0.907-0.379,1.528-0.379 c0.676,0,1.213,0.176,1.602,0.537c0.389,0.36,0.584,0.942,0.584,1.75v0.926c-0.686-0.213-1.463-0.314-2.334-0.314 s-1.611,0.141-2.251,0.418s-1.13,0.666-1.474,1.176c-0.342,0.51-0.519,1.104-0.519,1.779c0,0.674,0.14,1.23,0.427,1.75 c0.277,0.52,0.713,0.926,1.277,1.23c0.574,0.307,1.277,0.455,2.13,0.455c0.991,0,1.845-0.242,2.565-0.724 c0.705-0.463,1.25-1.104,1.65-1.907c0.213,0.692,0.323,1.479,0.342,2.37L78.502,29.688L78.502,29.688z M74.158,27.289 c-0.398,0.584-1.039,0.871-1.928,0.871c-0.648,0-1.141-0.158-1.473-0.463c-0.334-0.314-0.5-0.705-0.5-1.186 c0-0.482,0.176-0.882,0.537-1.232c0.36-0.352,0.926-0.527,1.686-0.527c0.936,0,1.695,0.176,2.26,0.527 C74.705,26.104,74.511,26.77,74.158,27.289L74.158,27.289z M98.453,23.797c-0.52-0.223-1.111-0.389-1.787-0.49l-1.168-0.195 c-0.666-0.102-1.178-0.268-1.537-0.508c-0.36-0.242-0.537-0.565-0.537-0.973c0-0.438,0.222-0.787,0.666-1.047 c0.445-0.26,0.955-0.391,1.539-0.391s1.027,0.111,1.416,0.344c0.371,0.213,0.648,0.537,0.834,0.973l1.777-0.76 c-0.287-0.76-0.75-1.344-1.408-1.74c-0.658-0.398-1.526-0.594-2.621-0.594c-0.76,0-1.463,0.129-2.112,0.389 c-0.64,0.26-1.147,0.631-1.528,1.111c-0.371,0.48-0.564,1.047-0.564,1.695c0,0.936,0.306,1.666,0.908,2.213s1.379,0.891,2.306,1.029 l1.168,0.192c0.647,0.103,1.166,0.25,1.557,0.442c0.39,0.195,0.582,0.537,0.582,1.021c0,0.508-0.213,0.906-0.629,1.186 c-0.418,0.285-0.992,0.427-1.731,0.427c-0.648,0-1.195-0.156-1.621-0.474c-0.437-0.313-0.741-0.741-0.926-1.278l-1.937,0.834 c0.278,0.787,0.769,1.444,1.481,1.955c0.741,0.526,1.76,0.797,3.039,0.797c0.889,0,1.657-0.147,2.307-0.453 c0.648-0.308,1.158-0.726,1.527-1.25c0.371-0.528,0.547-1.142,0.547-1.834c0-0.694-0.14-1.205-0.408-1.633 C99.361,24.344,98.974,24.02,98.453,23.797L98.453,23.797z M10.06,33.764L10.06,33.764c-3.362-0.02-5.946-1.131-7.688-3.297 C0.825,28.539,0.028,25.861,0,22.51v-0.02c0.028-3.354,0.824-6.039,2.371-7.957c1.732-2.168,4.316-3.27,7.679-3.297h0.009h0.009 c2.575,0.02,4.733,0.676,6.41,1.963c1.575,1.213,2.686,2.938,3.297,5.131l-1.917,0.537c-1.037-3.713-3.659-5.611-7.79-5.641 c-2.732,0.02-4.798,0.881-6.141,2.547c-1.26,1.565-1.908,3.826-1.926,6.725c0.027,2.9,0.676,5.16,1.926,6.727 c1.343,1.676,3.409,2.529,6.141,2.547c2.464-0.018,4.094-0.592,5.447-1.916c1.547-1.512,1.519-3.373,1.019-4.502 c-0.287-0.668-0.824-1.223-1.538-1.641c-0.176,1.27-0.583,2.297-1.204,3.064c-0.833,1.039-2.01,1.604-3.501,1.678 c-1.13,0.064-2.213-0.203-3.056-0.75c-1-0.648-1.584-1.631-1.649-2.777c-0.065-1.121,0.38-2.141,1.25-2.893 c0.824-0.713,1.991-1.129,3.362-1.213c1.01-0.055,1.954-0.01,2.834,0.129c-0.121-0.693-0.352-1.25-0.704-1.646 c-0.481-0.547-1.223-0.834-2.214-0.834c-0.009,0-0.019,0-0.028,0c-0.796,0-1.871,0.213-2.556,1.242L5.881,18.6 c0.917-1.361,2.408-2.111,4.205-2.111c0.009,0,0.028,0,0.037,0c3.001,0.021,4.78,1.854,4.965,5.06 c0.102,0.048,0.204,0.084,0.296,0.129c1.399,0.658,2.417,1.658,2.955,2.882c0.75,1.715,0.815,4.491-1.454,6.717 C15.154,32.977,13.053,33.736,10.06,33.764L10.06,33.764L10.06,33.764z M10.996,22.787c-0.231,0-0.454,0.01-0.694,0.02 c-1.723,0.103-2.797,0.889-2.732,2.01c0.064,1.177,1.361,1.724,2.612,1.658c1.148-0.063,2.649-0.51,2.899-3.481 C12.44,22.861,11.746,22.787,10.996,22.787z"/></svg>