<svg width="100" height="45" viewBox="0 0 100 45" xmlns="http://www.w3.org/2000/svg"><path fill="#000000" d="M23.58,16.669c0.731,0.477,1.601,0.754,2.535,0.754v0.745v2.601c-1.734,0-3.342-0.556-4.655-1.497v6.8c0,3.396-2.763,6.16-6.159,6.16c-1.312,0-2.529-0.414-3.529-1.116c-1.588-1.115-2.63-2.961-2.63-5.044c0-3.396,2.763-6.157,6.159-6.157c0.282,0,0.558,0.022,0.83,0.06v0.793v2.623c-0.262-0.082-0.541-0.13-0.83-0.13c-1.55,0-2.813,1.262-2.813,2.813c0,1.08,0.613,2.019,1.509,2.488c0.391,0.207,0.833,0.324,1.304,0.324c1.515,0,2.751-1.206,2.808-2.708l0.005-13.409h3.346c0,0.29,0.028,0.573,0.079,0.85C21.775,14.892,22.531,15.984,23.58,16.669 M29.313,20.463l3.432-0.006v11.16h3.411v-11.16l2.737,0.001l0.968-3.02H29.31L29.313,20.463z M57.148,20.463l3.431-0.006v11.16h3.416v-11.16l2.976,0.001l0.971-3.02H57.145L57.148,20.463z M40.525,31.617h3.359l0.004-9.669h-3.382L40.525,31.617z M45.229,31.617h3.378v-3.735l1.002-0.974l3.167,4.709h3.724l-4.744-6.79l4.236-4.111h-4.035l-3.349,3.287v-6.604h-3.378V31.617z M79.587,31.617h3.38v-3.735l1.001-0.974l3.166,4.709h3.724l-4.744-6.79l4.236-4.111h-4.033l-3.35,3.287v-6.604h-3.38V31.617z M43.897,19.142c0-0.938-0.762-1.702-1.702-1.702c-0.941,0-1.703,0.764-1.703,1.702c0,0.94,0.762,1.702,1.703,1.702C43.135,20.844,43.897,20.082,43.897,19.142 M72.426,20.042c3.197,0,5.788,2.591,5.788,5.787c0,3.195-2.591,5.788-5.788,5.788c-3.195,0-5.785-2.593-5.785-5.788C66.641,22.633,69.229,20.042,72.426,20.042 M72.426,28.644c1.555,0,2.814-1.26,2.814-2.813s-1.26-2.813-2.814-2.813c-1.553,0-2.813,1.26-2.813,2.813S70.873,28.644,72.426,28.644"/></svg>