<svg width="100" height="45" viewBox="0 0 100 45" xmlns="http://www.w3.org/2000/svg"><path fill="#606060" d="M20.708,13.613c-4.929-3.588-11.792-2.437-15.456,2.467c-3.939,5.264-6.505,12.031-1.424,15.417c3.511,2.339,14.092,3.721,18.751-2.394C26.291,24.237,25.642,17.208,20.708,13.613"/><path fill="#FFFFFF" d="M5.398,29.727l7.767-13.638h1.806l-7.77,13.638H5.398z M10.904,29.727l7.77-13.638h1.803L12.71,29.727H10.904z"/><path fill="#101820" d="M44.624,17.276h2.034v11.69h-2.034V17.276z M54.248,29.051c-1.795,0-3.482-0.604-4.887-1.842l1.242-1.448c1.121,0.963,2.254,1.502,3.692,1.502c1.274,0,2.069-0.599,2.069-1.448v-0.028c0-0.823-0.46-1.267-2.644-1.764c-2.483-0.592-3.896-1.314-3.896-3.441v-0.03c0-1.98,1.678-3.344,3.999-3.344c1.705,0,3.063,0.511,4.253,1.448l-1.106,1.532c-1.048-0.778-2.111-1.19-3.178-1.19c-1.202,0-1.9,0.61-1.9,1.364v0.033c0,0.892,0.531,1.286,2.793,1.813c2.477,0.592,3.75,1.463,3.75,3.37v0.035C58.423,27.765,56.7,29.051,54.248,29.051 M66.522,29.051c-3.374,0-5.888-2.602-5.888-5.896v-0.028c0-3.26,2.466-5.934,5.971-5.934c2.13,0,3.428,0.739,4.533,1.783l-1.309,1.492c-0.928-0.852-1.92-1.423-3.248-1.423c-2.201,0-3.822,1.797-3.822,4.043v0.03c0,2.249,1.609,4.062,3.822,4.062c1.424,0,2.333-0.557,3.331-1.478l1.311,1.31C70.017,28.268,68.688,29.051,66.522,29.051 M76.151,24.298h3.966l-1.992-4.668L76.151,24.298z M72.071,28.967l5.114-11.774h1.885l5.114,11.774h-2.153l-1.179-2.829h-5.497l-1.19,2.829H72.071z M86.212,28.967V17.276h2.033v9.818h6.103v1.872L86.212,28.967L86.212,28.967z M96.883,17.276H99v11.69h-2.117V17.276z M35.874,28.967v-9.785h-3.703v-1.906h9.484v1.905h-3.712v9.785L35.874,28.967L35.874,28.967z"/></svg>