<svg width="100" height="45" viewBox="0 0 100 45" xmlns="http://www.w3.org/2000/svg"><path fill="#000000" d="M27.185,18.849c0.016,0.204,0.016,0.409,0.016,0.615c0,6.284-4.783,13.53-13.529,13.53V32.99c-2.583,0.004-5.114-0.737-7.289-2.131c0.376,0.046,0.753,0.067,1.132,0.068c2.142,0.002,4.222-0.717,5.905-2.039c-2.036-0.039-3.819-1.365-4.442-3.303c0.712,0.137,1.447,0.109,2.146-0.082c-2.218-0.447-3.814-2.397-3.814-4.662c0-0.021,0-0.04,0-0.059c0.661,0.368,1.401,0.573,2.157,0.595c-2.089-1.396-2.732-4.177-1.471-6.35c2.414,2.971,5.976,4.777,9.8,4.969c-0.384-1.652,0.141-3.383,1.375-4.544c1.915-1.8,4.928-1.708,6.729,0.207c1.064-0.21,2.086-0.601,3.019-1.154c-0.354,1.101-1.099,2.035-2.091,2.629c0.942-0.11,1.863-0.363,2.73-0.748C28.92,17.343,28.115,18.176,27.185,18.849z M43.668,30.834l6.121-14.995h-1.664l-5.313,13.418h-0.047l-5.359-13.418h-1.686l6.121,14.995H43.668z M53.6,17.96v-2.121h-1.455v2.121H53.6z M53.6,30.834V19.998h-1.455v10.836H53.6z M66.582,15.839v6.216h-0.046c-0.309-0.756-0.844-1.34-1.605-1.754c-0.763-0.413-1.605-0.619-2.529-0.619c-1.726,0-3.072,0.574-4.043,1.722c-0.878,1.037-1.316,2.373-1.316,4.012c0,1.638,0.438,2.975,1.316,4.01c0.971,1.148,2.317,1.723,4.043,1.723c0.893,0,1.747-0.225,2.563-0.672s1.378-1.016,1.687-1.701h0.046v2.059h1.34V15.839H66.582z M59.421,22.266c0.693-0.98,1.687-1.47,2.98-1.47c1.432,0,2.518,0.49,3.257,1.47c0.615,0.826,0.924,1.876,0.924,3.15c0,1.273-0.309,2.324-0.924,3.149c-0.739,0.979-1.825,1.47-3.257,1.47c-1.294,0-2.287-0.49-2.98-1.47c-0.616-0.84-0.924-1.89-0.924-3.149C58.497,24.155,58.805,23.105,59.421,22.266z M80.857,21.593c-0.939-1.273-2.31-1.911-4.111-1.911c-1.771,0-3.142,0.595-4.112,1.785c-0.847,1.05-1.271,2.367-1.271,3.949c0,1.666,0.424,3.01,1.271,4.031c0.955,1.135,2.325,1.701,4.112,1.701c2.803,0,4.535-1.295,5.197-3.885h-1.455c-0.524,1.848-1.771,2.771-3.742,2.771c-1.278,0-2.279-0.469-3.003-1.406c-0.601-0.784-0.909-1.736-0.925-2.856h9.171C82.051,24.092,81.674,22.7,80.857,21.593z M73.974,21.993c0.724-0.798,1.647-1.197,2.772-1.197c1.124,0,2.04,0.392,2.749,1.176c0.661,0.728,1.008,1.624,1.039,2.688h-7.716C72.942,23.582,73.327,22.693,73.974,21.993z M85.962,21.383c-0.97,1.064-1.455,2.408-1.455,4.033c0,1.623,0.485,2.968,1.455,4.031c1.032,1.135,2.426,1.701,4.182,1.701s3.149-0.566,4.181-1.701c0.971-1.063,1.456-2.408,1.456-4.031c0-1.625-0.485-2.968-1.456-4.033c-1.031-1.134-2.425-1.701-4.181-1.701S86.994,20.25,85.962,21.383z M93.285,22.245c0.693,0.869,1.039,1.925,1.039,3.171s-0.346,2.303-1.039,3.17c-0.771,0.967-1.817,1.449-3.142,1.449c-1.325,0-2.372-0.482-3.142-1.449c-0.693-0.867-1.04-1.924-1.04-3.17s0.347-2.303,1.04-3.171c0.77-0.966,1.816-1.449,3.142-1.449C91.468,20.795,92.515,21.278,93.285,22.245z"/></svg>