<svg width="100" height="45" viewBox="0 0 100 45" xmlns="http://www.w3.org/2000/svg"><path fill="#162221" d="M28.462,20.844c-0.082,1.697-1.265,4.023-3.552,6.964c-2.369,3.082-4.37,4.621-6.008,4.621c-1.014,0-1.874-0.938-2.58-2.813c-0.468-1.719-0.939-3.438-1.402-5.157c-0.519-1.872-1.078-2.813-1.678-2.813c-0.129,0-0.583,0.276-1.37,0.82l-0.819-1.055c0.859-0.754,1.712-1.508,2.546-2.271c1.143-0.989,2.011-1.516,2.579-1.565c1.354-0.129,2.188,0.795,2.505,2.782c0.34,2.141,0.576,3.47,0.706,3.998c0.389,1.775,0.819,2.66,1.29,2.66c0.364,0,0.916-0.576,1.646-1.729c0.729-1.15,1.119-2.027,1.175-2.633c0.104-1-0.286-1.494-1.177-1.494c-0.415,0-0.844,0.097-1.29,0.284c0.86-2.806,2.49-4.168,4.907-4.088c1.776,0.057,2.618,1.216,2.522,3.486 M39.213,26.342c-0.729,1.377-1.736,2.633-3.018,3.754c-1.751,1.508-3.494,2.271-5.236,2.271c-0.811,0.002-1.428-0.259-1.858-0.777s-0.633-1.198-0.607-2.032c0.023-0.861,0.292-2.188,0.802-3.99c0.511-1.801,0.763-2.764,0.763-2.894c0-0.673-0.235-1.015-0.705-1.015c-0.155,0-0.602,0.275-1.331,0.818l-0.901-1.055c0.836-0.751,1.671-1.505,2.507-2.268c1.118-0.99,1.954-1.516,2.505-1.565c0.86-0.081,1.493,0.18,1.898,0.763c0.404,0.584,0.551,1.346,0.453,2.279c-0.34,1.592-0.706,3.602-1.094,6.042c-0.023,1.117,0.381,1.679,1.217,1.679c0.364,0,1.013-0.391,1.954-1.16c0.779-0.641,1.419-1.25,1.915-1.815l0.737,0.972 M35.808,12.431c-0.023,0.649-0.349,1.273-0.981,1.873c-0.704,0.672-1.541,1.013-2.505,1.013c-1.485,0-2.206-0.649-2.15-1.946c0.026-0.672,0.422-1.321,1.193-1.947c0.77-0.623,1.621-0.93,2.563-0.93c0.551,0,1.005,0.212,1.37,0.642C35.663,11.556,35.832,11.994,35.808,12.431 M63.646,26.348c-0.73,1.377-1.736,2.633-3.019,3.752c-1.75,1.51-3.493,2.271-5.237,2.271c-1.693,0.001-2.514-0.938-2.465-2.813c0.022-0.836,0.188-1.841,0.486-3.009c0.301-1.175,0.461-2.084,0.486-2.739c0.023-0.988-0.274-1.483-0.899-1.483c-0.681,0-1.493,0.81-2.435,2.423c-0.997,1.695-1.531,3.34-1.612,4.932c-0.058,1.118,0.056,1.984,0.332,2.577c-1.816,0.05-3.098-0.251-3.819-0.899c-0.649-0.574-0.948-1.524-0.899-2.853c0.024-0.837,0.156-1.673,0.382-2.506c0.227-0.837,0.357-1.583,0.381-2.231c0.049-0.963-0.299-1.451-1.055-1.451c-0.656,0-1.36,0.746-2.115,2.23c-0.755,1.485-1.176,3.041-1.259,4.654c-0.047,1.461,0.042,2.48,0.285,3.049c-1.793,0.049-3.064-0.322-3.812-1.134c-0.624-0.673-0.907-1.704-0.859-3.082c0.024-0.673,0.146-1.622,0.357-2.829c0.218-1.209,0.332-2.148,0.357-2.83c0.048-0.472-0.065-0.706-0.349-0.706c-0.154,0-0.6,0.266-1.331,0.793l-0.94-1.054c0.131-0.105,0.95-0.859,2.466-2.271c1.095-1.014,1.84-1.54,2.229-1.565c0.682-0.057,1.226,0.227,1.646,0.845c0.415,0.615,0.625,1.32,0.625,2.131c0,0.259-0.025,0.511-0.082,0.745c0.388-0.599,0.844-1.117,1.369-1.563c1.202-1.047,2.548-1.63,4.031-1.76c1.282-0.105,2.188,0.196,2.74,0.9c0.445,0.576,0.648,1.394,0.625,2.465c0.185-0.155,0.381-0.325,0.583-0.512c0.601-0.705,1.185-1.266,1.761-1.679c0.963-0.705,1.969-1.094,3.017-1.176c1.249-0.104,2.149,0.196,2.7,0.9c0.47,0.568,0.68,1.387,0.625,2.458c-0.024,0.729-0.205,1.783-0.528,3.177c-0.324,1.386-0.487,2.188-0.487,2.399c-0.023,0.543,0.023,0.925,0.155,1.127c0.129,0.212,0.444,0.31,0.938,0.31c0.365,0,1.014-0.39,1.955-1.159c0.776-0.641,1.42-1.248,1.914-1.816l0.754,0.98 M78.313,26.305c-0.754,1.248-2.246,2.495-4.461,3.744c-2.766,1.592-5.569,2.385-8.408,2.385c-2.114,0-3.623-0.705-4.539-2.108c-0.649-0.964-0.965-2.107-0.94-3.446c0.023-2.107,0.964-4.119,2.813-6.026c2.035-2.083,4.435-3.129,7.199-3.129c2.558,0,3.908,1.038,4.069,3.122c0.104,1.33-0.623,2.693-2.188,4.095c-1.67,1.531-3.771,2.514-6.301,2.927c0.469,0.649,1.176,0.973,2.117,0.973c1.871,0,3.924-0.479,6.146-1.435c1.588-0.674,2.836-1.371,3.753-2.092l0.739,0.988 M69.435,22.217c0.026-0.698-0.256-1.056-0.858-1.056c-0.777,0-1.571,0.536-2.384,1.614c-0.811,1.08-1.225,2.108-1.248,3.099c-0.016,0-0.016,0.169,0,0.502c1.273-0.469,2.385-1.185,3.314-2.142c0.758-0.826,1.145-1.5,1.178-2.018 M88.937,23.675c-0.104,2.402-0.988,4.47-2.66,6.214c-1.668,1.743-3.744,2.617-6.217,2.617c-2.062,0-3.627-0.664-4.694-1.992c-0.779-0.99-1.218-2.23-1.291-3.717c-0.13-2.234,0.674-4.297,2.425-6.169c1.881-2.083,4.241-3.121,7.078-3.121c1.824,0,3.203,0.616,4.145,1.832c0.883,1.128,1.289,2.571,1.217,4.339 M84.511,23.533c0.022-0.706-0.074-1.355-0.295-1.939c-0.219-0.583-0.543-0.884-0.955-0.884c-1.332,0-2.425,0.722-3.285,2.158c-0.729,1.176-1.117,2.431-1.177,3.762c-0.021,0.656,0.091,1.231,0.351,1.728c0.285,0.574,0.689,0.86,1.216,0.86c1.177,0,2.181-0.69,3.018-2.075c0.697-1.151,1.079-2.353,1.126-3.608L84.511,23.533L84.511,23.533z"/></svg>