<svg width="100" height="45" viewBox="0 0 100 45" xmlns="http://www.w3.org/2000/svg"><path fill="#000000" d="M57.339,28.54h-0.758c-0.215-0.992-0.8-1.487-1.752-1.487c-0.688,0-1.229,0.274-1.632,0.827 c-0.358,0.496-0.541,1.103-0.541,1.813c0,0.713,0.183,1.314,0.541,1.813c0.398,0.553,0.943,0.828,1.632,0.828 c0.474,0,0.879-0.166,1.219-0.498c0.341-0.332,0.533-0.754,0.582-1.266h0.757c-0.104,0.744-0.386,1.33-0.841,1.758 s-1.026,0.643-1.717,0.643c-0.912,0-1.638-0.324-2.173-0.973c-0.504-0.607-0.756-1.375-0.756-2.305c0-0.928,0.252-1.695,0.756-2.305 c0.535-0.646,1.261-0.973,2.173-0.973c0.683,0,1.243,0.178,1.69,0.525C56.984,27.318,57.259,27.854,57.339,28.54z M61.059,26.415 c0.912,0,1.637,0.323,2.172,0.974c0.506,0.606,0.758,1.377,0.758,2.305c0,0.929-0.252,1.697-0.758,2.306 c-0.535,0.647-1.26,0.974-2.172,0.974s-1.636-0.324-2.172-0.974c-0.505-0.606-0.757-1.377-0.757-2.306 c0-0.928,0.252-1.694,0.757-2.305C59.423,26.738,60.146,26.415,61.059,26.415z M61.059,27.053c-0.688,0-1.229,0.274-1.632,0.827 c-0.358,0.496-0.54,1.103-0.54,1.813c0,0.713,0.182,1.314,0.54,1.813c0.398,0.553,0.943,0.828,1.632,0.828s1.231-0.275,1.633-0.828 c0.358-0.496,0.539-1.1,0.539-1.813c0-0.711-0.181-1.314-0.539-1.813C62.29,27.327,61.745,27.053,61.059,27.053z M65.113,32.788 v-6.19h0.695v1.043h0.037c0.432-0.813,1.106-1.226,2.026-1.226c0.424,0,0.799,0.104,1.121,0.313 c0.323,0.207,0.543,0.508,0.653,0.897c0.367-0.81,1.022-1.213,1.97-1.213c1.366,0,2.053,0.728,2.053,2.174v4.199h-0.758v-4.164 c0-1.05-0.486-1.572-1.463-1.572c-1.121,0-1.683,0.744-1.683,2.231v3.505H69.01v-4.199c0-1.022-0.433-1.537-1.296-1.537 c-0.625,0-1.098,0.218-1.416,0.647c-0.288,0.4-0.435,0.943-0.435,1.632v3.457L65.113,32.788L65.113,32.788z M49.794,31.125 c0.518,0,0.938,0.42,0.938,0.938c0,0.519-0.42,0.938-0.938,0.938s-0.938-0.42-0.938-0.938 C48.856,31.545,49.276,31.125,49.794,31.125z M38.562,20.893l7.648-8.894h-1.813l-6.643,7.724l-5.305-7.722H26.33l8.023,11.677 l-8.023,9.323h1.814l7.014-8.153l5.604,8.153h6.119L38.562,20.893L38.562,20.893z M36.077,23.777l-0.813-1.161l-6.469-9.253h2.785 l5.221,7.468l0.813,1.162l6.783,9.704h-2.783L36.077,23.777L36.077,23.777z"/></svg>