<svg width="100" height="45" viewBox="0 0 100 45" xmlns="http://www.w3.org/2000/svg"><path fill="#000000" d="M16.384,20.893l7.648-8.894h-1.813l-6.643,7.724l-5.303-7.722H4.154l8.023,11.677l-8.023,9.323h1.814l7.014-8.153 l5.604,8.153h6.117L16.384,20.893L16.384,20.893z M13.901,23.777l-0.813-1.161l-6.469-9.253h2.785l5.221,7.468l0.813,1.162 l6.783,9.704h-2.783L13.901,23.777L13.901,23.777z M42.007,31.684h-1c-1.881-3.106-2.82-6.152-2.82-9.142 c0-3.254,0.939-6.34,2.82-9.26h1c-1.707,2.721-2.561,5.959-2.561,9.721c0,1.427,0.24,2.927,0.719,4.5 C40.618,29.021,41.233,30.415,42.007,31.684z M92.025,13.281h1c1.881,3.107,2.82,6.154,2.82,9.142c0,3.255-0.939,6.343-2.82,9.263 h-1c1.707-2.722,2.563-5.961,2.563-9.722c0-1.428-0.232-2.928-0.699-4.5C93.421,15.941,92.8,14.55,92.025,13.281z M76.223,17.771 c0.016,0.205,0.016,0.41,0.016,0.615c0,6.284-4.782,13.53-13.528,13.53V31.91c-2.582,0.006-5.112-0.736-7.287-2.133 c0.375,0.049,0.752,0.068,1.132,0.068c2.143,0.002,4.223-0.717,5.903-2.039c-2.035-0.039-3.817-1.365-4.44-3.303 c0.713,0.137,1.446,0.109,2.146-0.082c-2.22-0.447-3.813-2.396-3.813-4.662c0-0.021,0-0.039,0-0.059 c0.662,0.367,1.399,0.572,2.157,0.596c-2.09-1.396-2.731-4.178-1.473-6.352c2.414,2.971,5.978,4.777,9.801,4.971 c-0.385-1.652,0.142-3.385,1.375-4.545c1.914-1.801,4.929-1.709,6.729,0.207c1.063-0.211,2.086-0.602,3.021-1.154 c-0.354,1.102-1.101,2.035-2.092,2.629c0.942-0.109,1.862-0.363,2.729-0.748C77.956,16.266,77.152,17.1,76.223,17.771z"/></svg>