<svg width="100" height="45" viewBox="0 0 100 45" xmlns="http://www.w3.org/2000/svg"><path fill="#828282" d="M83.969,13.523c-0.749,0.015-1.491,0.279-2.079,0.745c-0.74,0.581-1.227,1.477-1.305,2.417c-0.136,1.332,0.59,2.69,1.76,3.334c1.342,0.779,2.688,1.546,4.024,2.33c2.298,1.33,4.598,2.655,6.896,3.985c0.756-0.44,1.397-1.086,1.799-1.869c0.523-1.004,0.654-2.2,0.375-3.297c-0.233-0.935-0.771-1.79-1.519-2.401c-0.383-0.322-0.829-0.552-1.258-0.804c-2.277-1.314-4.554-2.629-6.832-3.942c-0.412-0.241-0.869-0.409-1.345-0.468C84.315,13.529,84.142,13.52,83.969,13.523z M6.21,15.006c-0.314-0.004-0.632,0.082-0.895,0.26c-0.854,0.494-1,1.798-0.281,2.47c1.625,1.652,3.266,3.288,4.904,4.928c0.032,1.857-0.012,3.714,0.017,5.569c-0.042,0.898,0.852,1.682,1.739,1.53c0.869,0.012,1.532-0.871,1.502-1.695c0-1.81-0.004-3.617-0.002-5.427c1.61-1.623,3.23-3.231,4.831-4.862c0.801-0.727,0.573-2.197-0.431-2.623c-0.663-0.318-1.479-0.105-1.956,0.439c-1.367,1.362-2.719,2.743-4.098,4.092c-1.423-1.397-2.816-2.823-4.239-4.222C7.019,15.167,6.617,15.013,6.21,15.006L6.21,15.006z M44.155,15.009c-0.757,0.015-1.501,0.555-1.575,1.349c-0.071,2.324,0.012,4.653-0.042,6.978c-0.057,1.275-0.876,2.491-2.074,2.957c-1.387,0.613-3.143,0.079-3.987-1.17c-0.407-0.572-0.591-1.273-0.618-1.97c-0.034-2.263,0.03-4.53-0.032-6.791c-0.092-1.034-1.287-1.592-2.203-1.234c-0.71,0.28-1.057,1.07-1.016,1.799c0.004,2.072-0.015,4.145-0.006,6.218c0.034,1.862,0.792,3.725,2.203,4.964c2.067,1.925,5.422,2.223,7.812,0.729c1.909-1.138,3.122-3.289,3.173-5.506c0.002-2.196-0.013-4.396-0.012-6.595c0.035-0.674-0.365-1.36-1-1.612C44.581,15.042,44.368,15.005,44.155,15.009z M25.223,15.056c-0.829-0.001-1.657,0.092-2.42,0.435c-1.741,0.699-3.143,2.182-3.74,3.961c-0.477,1.302-0.324,2.713-0.33,4.071c0.029,3.354,3.094,6.352,6.457,6.241c0.011,0.001,0.021,0,0.033,0c0.01,0,0.021,0.001,0.032,0c3.363,0.109,6.428-2.888,6.457-6.241c-0.006-1.358,0.147-2.769-0.33-4.071c-0.598-1.779-1.999-3.262-3.74-3.961C26.877,15.147,26.049,15.054,25.223,15.056z M25.223,18.232L25.223,18.232c1.686,0.037,3.283,1.481,3.248,3.227c-0.032,1.087,0.189,2.264-0.342,3.267c-0.541,1.059-1.679,1.812-2.877,1.814c-0.009,0-0.019-0.002-0.028-0.002c-0.01,0-0.02,0.002-0.03,0.002c-1.198-0.004-2.336-0.757-2.876-1.814c-0.532-1.003-0.311-2.18-0.343-3.267C21.938,19.713,23.536,18.27,25.223,18.232L25.223,18.232z"/><path fill="#9E9E9E" d="M62.883,15c-0.159,0.004-0.317,0.032-0.473,0.088c-0.677,0.241-1.126,0.94-1.069,1.658c0.008,2.321-0.038,4.645,0.021,6.964c0.141,3.291,3.166,6.167,6.473,6.055c3.355,0.187,6.469-2.719,6.614-6.059c0.028-2.195-0.003-4.391,0.015-6.583c-0.008-0.49,0.041-1.033-0.283-1.439c-0.41-0.627-1.266-0.809-1.939-0.562c-0.639,0.26-1.041,0.944-1.016,1.624c-0.004,2.197,0.008,4.394-0.004,6.593c-0.009,1.188-0.764,2.316-1.816,2.853c-0.947,0.488-2.143,0.479-3.074-0.039c-1.02-0.544-1.723-1.639-1.736-2.8c-0.059-2.262,0.018-4.527-0.037-6.788C64.563,15.666,63.735,14.979,62.883,15z M58.646,15.006c-0.084-0.001-0.166,0.006-0.25,0.021c-0.5-0.021-0.883,0.352-1.218,0.675c-1.653,1.671-3.334,3.318-4.983,4.995c-0.93,0.894-0.92,2.521,0.023,3.399c1.743,1.755,3.487,3.509,5.25,5.246c0.754,0.788,2.225,0.434,2.598-0.575c0.203-0.607,0.111-1.347-0.387-1.79c-1.523-1.535-3.062-3.054-4.582-4.591c1.484-1.501,2.986-2.986,4.475-4.482c0.361-0.358,0.629-0.837,0.58-1.358C60.188,15.726,59.442,15.017,58.646,15.006L58.646,15.006z M49.157,15.014c-0.229-0.006-0.46,0.031-0.672,0.11c-0.627,0.26-1.029,0.937-1,1.607c0,3.776,0.002,7.55-0.002,11.326c-0.032,0.672,0.373,1.35,0.999,1.611c0.978,0.429,2.285-0.313,2.227-1.428c0.009-3.834-0.002-7.669,0.004-11.503c0.01-0.369-0.034-0.752-0.27-1.051C50.16,15.248,49.662,15.025,49.157,15.014z M86.313,22.315c-1.328,0.777-2.658,1.552-3.989,2.318c-0.847,0.478-1.474,1.321-1.675,2.272c-0.198,0.886-0.027,1.846,0.463,2.606c0.48,0.768,1.277,1.324,2.16,1.521c0.854,0.198,1.778,0.049,2.533-0.396c2.485-1.433,4.971-2.869,7.457-4.304c-2.297-1.33-4.597-2.655-6.895-3.985L86.313,22.315z"/></svg>